<svg xmlns="http://www.w3.org/2000/svg" xmlns:xlink="http://www.w3.org/1999/xlink" viewBox="0 0 656.03 697.61"><defs><style>.cls-1{fill:none;}.cls-2{clip-path:url(#clip-path);}.cls-3{fill:#fff;}.cls-4{fill:#b06d51;}.cls-5{fill:#8f5238;}.cls-6{fill:#ffa894;}.cls-7{fill:#232c44;}.cls-8{fill:#f7886d;}.cls-9{fill:#fad3b1;}.cls-10{fill:#ebbd94;}</style><clipPath id="clip-path"><circle class="cls-1" cx="327.62" cy="327.62" r="327.62"/></clipPath></defs><g id="Layer_2" data-name="Layer 2"><g id="Layer_1-2" data-name="Layer 1"><g class="cls-2"><circle class="cls-3" cx="327.62" cy="327.62" r="327.62"/><path class="cls-4" d="M466.6,351.55c-4.25-21.32-2.43-42.76-4.17-64.22-1.43-17.58-4.65-34.95-8.26-52.2-3.41-16.28-2.93-32.8-6.4-49.1-6-28-15-62.95-40.84-76.86a51.73,51.73,0,0,0-47.73-.94S287.08,85.31,237,119.78C220.72,131,212.67,160,205.09,176.19c-14.92,32-11.48,65.25-12.71,99.44-.74,20.42-5.42,37.49-14.25,55.79-6.75,14-8.43,25.64-4.4,40.69,2.69,10.06,5.11,19.26,1.86,29.62-2.49,7.93-6.4,15.42-6.09,23.94.47,12.88,9.8,23.47,19.43,31a131.1,131.1,0,0,0,18,11.79c-3.41,4.8-5.82,10.51-1,13.42,11.72,7.08,25.31,10.93,38.15,15q23.32,7.43,47.17,12.72c29.52,6.51,85.3-5.45,124.21-15.74l1,0c12.81,0,27.87-1.89,39.05-8.56S471.8,464.86,474,452.7C479.75,420.09,473,383.62,466.6,351.55Z"/><path class="cls-5" d="M454.53,480.4q-1.09-15.64-2.86-31.22c-.88-7.71-1-16.68-4.47-23.78-2.85-5.83-6.32-9.17-7.52-15.95-1-5.58-1.09-11.39-1.52-17q-1.4-18.29-2.8-36.57l-5.76-75.06a2,2,0,0,0-3.39-1.4c-12.56,12-27.68,20-43.24,27.34-19.43,9.21-36.69,15.73-58.09,8.62-17.79-5.92-32.77-17.58-49.39-25.9-7.53-3.77-24.15-13.57-32-6-4.06,3.94-5.11,12.13-7.57,17-3.37,6.63-7.65,12.77-11.78,18.95-7.64,11.45-14.7,23-16.35,36.94-1.18,9.88,0,19.85-5,28.92-4,7.28-9.89,13.14-13.44,20.78a67.86,67.86,0,0,0-5.78,35.78,2.14,2.14,0,0,0,.32,2.54c.1.73.16,1.45.28,2.18.26,1.65,2,1.75,3,.93,2.95,5.39,4.09,17,5.66,20.59a66.12,66.12,0,0,0,12.4,18.41c12.49,13.34,29.29,21.38,45.83,28.49s32.56,13.57,50.5,15.56c20.15,2.24,38.67,11,58.88,12.53,19.79,1.45,39.14.32,58.9,2.95,14.11,1.88,28.05,0,33.8-14.74C459.18,515.86,455.65,496.28,454.53,480.4Z"/><path class="cls-6" d="M404,331.06c0-1.57-2-2.82-3.08-1.41-2.62,3.68-4.53,7.91-7.77,11-3.58,3.37-8.22,5-12.63,6.51a191.07,191.07,0,0,1-33.31,8.65c-10.44,1.61-20.6,1.35-31.1.5-6.6-.56-12.65-.48-18.69,1.71-.2-2.57-.38-5.12-.58-7.66s-3.82-2.57-3.6,0c.26,3,.48,6.08.7,9.13a.4.4,0,0,1-.16.08c-1.59.81-.92,3,.43,3.52.3,4.23.6,8.47.86,12.7.14,2.07.26,4.16.36,6.23q1.43,23.29,1.93,46.65c0,.38,0,.74,0,1.11q.49,20.52.33,41.07c-2.34,4.57-4.31,9.86-2.26,13.1s7.57,2.93,10.66,3.4q9.36,1.44,18.83,1.95a204.3,204.3,0,0,0,78.15-11.19,2,2,0,0,0,1.31-1.91Q404.26,403.6,404,331.06Z"/><path class="cls-6" d="M406.19,169.35c-7.27-5-33.69-1.65-41.82-.71-13.67,1.6-27.26,4.14-40.81,6.54-30.76,5.43-56.36,9.28-85.49,20.65a2.83,2.83,0,0,0-1.75,3.44,2.08,2.08,0,0,0-.74,1.71c3.26,36.91,12.15,106.55,30.16,144.83,9.77,20.77,35,44.12,56.81,53,44.61,18.23,68.42-8.59,87.41-41.61,22.56-39.24,16.12-79,9.89-121.12C418.15,224.6,413.15,174.17,406.19,169.35Z"/><path class="cls-7" d="M384.59,259.87A34.84,34.84,0,0,0,383.28,249a9.9,9.9,0,0,0-2.84-4.39c-4-3.18-7.66,1-8.12,4.78-.59,4.92.95,15.26,5.72,17.08C383,268.36,384.38,264.68,384.59,259.87Z"/><path class="cls-7" d="M292.51,273.56a34.28,34.28,0,0,0-1.57-10.71,9.83,9.83,0,0,0-2.92-4.28c-4-3-7.56,1.18-7.91,4.94-.47,4.88,1.32,15.07,6.09,16.75C291.13,282,292.42,278.33,292.51,273.56Z"/><path class="cls-6" d="M438.55,241.58c-4.94-11.28-13.45-9.1-19.61-2.87a2,2,0,0,0-2,.84,23.8,23.8,0,0,0-3.27,6.66l-.09.17a2.27,2.27,0,0,0-.14.54c-1.39,4.92-1.29,10.14-.71,15.58,1.25,11.49,3,23,4.72,34.45,2.73,17.82,14.2.43,19.05-7.21C445.05,276.27,445,256.22,438.55,241.58Z"/><path class="cls-6" d="M240.29,316.12c6.63,6.15,22.15,20.05,20.26,2.12-1.21-11.5-2.49-23.09-4.21-34.52-.82-5.41-2-10.48-4.65-14.88a2.15,2.15,0,0,0-.27-.49l-.13-.14a23.62,23.62,0,0,0-4.86-5.61,2,2,0,0,0-2.16-.29c-7.55-4.46-16.34-4.41-18.24,7.76C223.57,285.86,228.58,305.27,240.29,316.12Z"/><path class="cls-8" d="M431.29,270.43c-.67-3.15-2.38-4.25-3.93-6.8-2.16-3.55-.46-10-.11-14.25.21-2.55-3.77-2.54-4,0-.32,3.91-2.43,11.29-.74,14.92.55,1.19,1.87,1.75,2.68,2.72,3.74,4.51,2.84,10.09-1.86,13.39-2.08,1.46-.1,4.91,2,3.43C429.78,280.74,432.47,276,431.29,270.43Z"/><path class="cls-8" d="M251.94,304.35c-2.36-1.27-4.75-3.43-5.46-6.14-.83-3.17.85-5.27,1.73-8a5,5,0,0,0,.52-2.76c-.2-2.15-2.17-4.74-3.09-6.66l-5-10.4c-1.11-2.3-4.54-.29-3.44,2,2.09,4.33,5.58,9.21,6.68,13.86.61,2.58.53,1-.27,3.87a26.71,26.71,0,0,0-1.27,4.34c-.65,5.84,2.61,10.61,7.6,13.29C252.19,309,254.2,305.56,251.94,304.35Z"/><path class="cls-4" d="M304.36,233.94c-7.33-4.46-17.6-2.08-25.22.27s-16.48,8.59-18.92,16.49A2,2,0,0,0,261,253c2,1.25,2.19,1,4.56.46,5.46-1.28,10.91-5.06,16.41-6.68a91,91,0,0,1,16.18-3.18c2.43-.26,6.62.25,8.57-1.89C309.29,238.87,307,235.52,304.36,233.94Z"/><path class="cls-4" d="M353.08,233.07c2.54,1.39,6.33-.46,8.71-1a91.73,91.73,0,0,1,16.33-2.28c5.73-.27,12.12,1.52,17.69,1,2.43-.25,2.67-.09,4.16-1.93a2,2,0,0,0,0-2.42c-4.89-6.67-15.34-9.68-23.26-9.41s-18.46,1.38-23.93,8C350.82,227.3,349.7,231.23,353.08,233.07Z"/><path class="cls-8" d="M397.59,376.35c-15,13.58-27.74,25.3-44.85,27.06-10,1-42.6-9-57.25-21.48l0,0q1.43,23.29,1.93,46.65c2.08-.12,4.25.38,10,1.25,3.74.56,6.36,1.1,10.14.34,9-1.79,14.78-5.57,24.64-3.92,5,.84,9.78,2,14.75.3,3.6-1.23,6.57-3.8,9.23-6.4,5.51-5.35,9.81-9.83,16.17-14.36,8.73-6.24,9-9.67,12.91-19.5C396,384.34,398.92,375.13,397.59,376.35Z"/><path class="cls-3" d="M371.29,333c-3.75,0-52.55,7.78-54,7.64-.6-.05-.88.61-.79,1.09.79,4.32,8,6.9,11.59,8.06a44.84,44.84,0,0,0,19.26,1.46,43.74,43.74,0,0,0,14.78-4.9,21.52,21.52,0,0,0,10-12.3A.85.85,0,0,0,371.29,333Z"/><path class="cls-9" d="M134,675c13.5,3.41,27,6.76,40.69,9.5,6.56,1.31,13.16,2.39,19.77,3.41,1,.15,8.53,1.24,9.44,1.4,2.59.33,5.18.66,7.78,1,50.89,6.05,102,6.93,153.22,7.25,52.22.33,104.14-.69,156.22-4.86q19.79-1.58,39.52-3.56l6.79-.7c-1.26-15.26-2.61-30.51-2.09-45.84.34-9.9,1-19.77,1.89-29.61,2-23.48,4.61-46.91,4.37-70.61v-.14c-.22-1.43-.44-2.87-.67-4.28-2.73-17.2-5.71-34.06-16.37-48.36a71.65,71.65,0,0,0-18.77-17.24c-.84-.56-1.69-1.1-2.55-1.61h0c-1.33-.82-2.7-1.59-4.09-2.33-2.45-1.33-4.94-2.54-7.48-3.66-17.54-7.69-52-15-72.54-18.43-2.11-.34-4.08-.66-5.85-.92l-2.92-.43c-2.71-.36-4.8-.6-6.11-.66a4.88,4.88,0,0,0-1.45,0c-3.66-17.22,6.12-43.79-17.68-42.18-11.79.82-18.85,11.18-29.61,14.48-7.95,2.46-46.27.41-53.49,1.09-17.57,1.63-22.29-1.05-39.36-8.31-7.49-3.18-16.74-6.24-20.66,3.48-1.61,4-1.09,8.27,0,12.31,1.73,6.56,3.24,12,3.24,18.29-1.29-.41-2.6-.85-3.89-1.27-.46-.14-.92-.3-1.38-.42q-3.18-.94-6.38-1.57l-.62-.12c-1.81-.33-3.6-.63-5.41-.89-7.93-1.08-15.92-1.43-24-2.83A67.93,67.93,0,0,1,223,433.63c-9.26,11.85-20,18.85-34.88,23-3.56,1-7.18,1.72-10.72,2.77l-.19,0a5.43,5.43,0,0,1-.62.27l-6.39,3.77c-1.75,1.13-3.44,2.35-5.15,3.54-.9.75-1.8,1.5-2.68,2.28A142.19,142.19,0,0,0,151,480.44c-1.11,1.2-5.11,4.79-5.54,6.4l2.17-2.85a33.39,33.39,0,0,0-2.42,3.49c-3.09,4.68-5.86,9.62-8.49,14.57-2.81,5.3-5.31,10.73-7.84,16.16l-.43.91c0,.1-.07.17-.11.29-.92,2.35-1.89,4.69-2.81,7-3.58,9.18-6.84,18.49-10.84,27.49.29,10.76.91,21.5,2.13,32.2,1.59,14,5,27.9,5.75,42,.85,15.5-20.86-11.43-24.9,3.38-.65,2.39-1.26,15.12-1.82,33.76C108.6,668.5,121.3,671.81,134,675Z"/><path class="cls-8" d="M348.7,313.55c-2.52.38-7.38,1.54-10,.78-5.78-1.68-4.91-6.83-5.12-11.22-.28-6.09-.32-12.18-.21-18.28.05-2.56-3.92-2.56-4,0-.12,6.1-.08,12.19.21,18.28.15,3.3-.05,7.25,1.31,10.33,3.21,7.23,12.59,4.88,18.83,3.94C352.28,317,351.21,313.17,348.7,313.55Z"/><path class="cls-9" d="M476.56,695.51c14.85-.72,29.71-1.63,44.58-2.82q19.79-1.58,39.52-3.56,8.26-.82,16.51-1.71c3.31-.35,6.62-.79,9.93-1.08q6.46-.8.33.1l9.43-1.27c19.69-2.59,39.43-4.68,59.17-6.77q-4-15.31-8.62-31.85c-4.2-14.84-8.87-30.35-14.2-46.47C598,493.41,536.05,472,536.05,472l-.24.32c-5,6.5-87.28,114.26-92.65,120-1.63,1.75,7.18,29.07,20.5,67C467.61,670.61,472,682.79,476.56,695.51Z"/><path class="cls-9" d="M135.53,636.9c.44,12.75-.43,25.44-1.46,38.13,13.48,3.41,27,6.76,40.64,9.49,6.56,1.31,13.16,2.39,19.77,3.41,1,.15,8.53,1.24,9.44,1.4,2.59.33,5.18.66,7.78,1,40.11,4.77,80.39,6.32,120.71,6.92-.81-11.93-1.87-23.86-3.28-35.76-.17-1.43-.35-2.86-.53-4.28-.08-.54-.19-1.33-.34-2.38-.34-2.14-.64-4.28-1-6.42q-1.51-9.61-3.34-19.19-3.33-17.55-7.54-34.92c-5.58-23.12-12.22-46-19.53-68.59-3.9-12.08-7.65-24.28-12.1-36.17-.86-2.3-1.77-4.57-2.68-6.85-.44-1.06-1.21-2.91-1.54-3.66q-3.53-7.89-7.43-15.61c-4.06-8.07-9.06-15.94-13.91-23.92l-1.6.24c-1.77.26-3.74.58-5.85.91-20.5,3.44-55,10.74-72.54,18.44q-3.81,1.67-7.48,3.66c-1.39.73-2.76,1.51-4.09,2.32h0c-.86.52-1.71,1.06-2.55,1.61a71.86,71.86,0,0,0-18.77,17.25c-10.66,14.29-13.64,31.16-16.37,48.36-.23,1.41-.45,2.84-.67,4.27v.14c-.24,23.71,2.4,47.13,4.37,70.62C134.48,617.13,135.19,627,135.53,636.9Z"/><path class="cls-9" d="M134,675c13.5,3.41,27,6.76,40.69,9.5,6.56,1.31,13.16,2.39,19.77,3.41,1,.15,8.53,1.24,9.44,1.4,2.59.33,5.18.66,7.78,1,4,.48,8,.91,12,1.32,4.83-13.37,9.41-26.18,13.55-38,13.32-37.88,22.13-65.2,20.5-66.95-5.37-5.79-87.68-113.55-92.65-120.06l-.24-.31s-62,21.37-97.16,128c-5.33,16.13-10,31.64-14.2,46.47-1.33,4.71-2.61,9.33-3.85,13.89C78,660.36,106,667.93,134,675Z"/><path class="cls-3" d="M529.15,468.41a41.65,41.65,0,0,0-1.59,4.2c-3.84,11.81-5,22.73-19.1,26.37-11,2.86-22.19-.54-33.07-2.43-5.86-1-12.15-2-17.77.58-7,3.16-11.86,10.42-17.09,15.69-7.59,7.65-16.36,15-27.26,17.08-20.84,3.94-31.24-18.46-50.51-21.22-18.31-2.62-35.81,6.92-54,7.26-11,.22-27.06-1.27-32.71-11.58-3.22-5.9-1.65-8-2.57-13.9a11.35,11.35,0,0,0-3.34-7c-4.39-4.29-12.15-4.87-17.78-6.24-10.44-2.54-21.05-4.75-31.38-7.73s-15.5-9.82-18.4-18.35a35.33,35.33,0,0,1-4.47,1.35c1.89,5.95,4.74,11.27,9.11,14.87,14.54,11.95,37.65,9.05,54.29,16.22,13.11,5.63,4.44,16.33,10.42,24.88,3.6,5.15,10.86,7.36,16.61,8.95,17.6,4.89,33.72.87,51-2.84,12-2.57,24-4,35,2.62,7.38,4.46,13.19,11.24,21.16,14.78,13.44,5.94,28.14.29,39-8.36,7.51-6,13.06-14.23,20.62-20.08,10.08-7.8,23.35-1.81,34.7-.22,14.38,2,31.58-.44,37.62-15.63,2.37-5.93,3.62-11.55,5.61-16.9C531.91,469.92,530.54,469.15,529.15,468.41Z"/><path class="cls-10" d="M549.11,510q-16.41,31.37-30.57,63.79c-1,2.32,2.41,4.35,3.43,2q14.16-32.43,30.58-63.79C553.74,509.73,550.3,507.71,549.11,510Z"/><path class="cls-10" d="M410.27,459.24c-41.47,25.8-91.65,22.45-128.49-9.62-1.92-1.68-4.74,1.12-2.81,2.81,38.16,33.22,90.27,37,133.31,10.24C414.45,461.32,412.45,457.88,410.27,459.24Z"/><path class="cls-10" d="M416.39,432.37c-33.55,7.15-67.85,14-102,6.61-2.5-.54-3.56,3.29-1.06,3.83,34.86,7.59,69.81.7,104.09-6.61C420,435.67,418.89,431.84,416.39,432.37Z"/><path class="cls-4" d="M415,180c-3.71-14.32-10.39-21-25-24.21-29-6.32-59.3-2.47-86.08,9.81a1.8,1.8,0,0,0-1.62-.43c.24-2.4.5-4.79.67-7.21s-3.79-2.54-4,0c-.21,2.78-.48,5.53-.78,8.26-10.35,2.72-20.64,5.67-30.83,9-9.12,2.95-21.49,5.24-29.52,10.61-5.44,3.64-6.09,12.2-7.41,18a168,168,0,0,0-4,31.26c-.15,4.51,0,9,.25,13.4a168,168,0,0,0-10.5,42.48c-2.58,22.83.28,44.6,3.66,67.11,0,.25.06.53.09.79-.57,5.25-1.27,10.5-2.17,15.72-3.9,22.47-12.14,44.25-13.48,67.13s10.77,50.28-.08,71.8c-4,7.91-7.24,14.94-7.66,24-.48,10.3,2,20.61,4.32,30.54a2,2,0,0,0,1.92,1.46q18.55,1.15,37.13.81a2,2,0,0,0,2-2c-.09-11.55-6.41-21.88-6-33.45.41-10.79,5.37-20.77,8-31.18,0,.11,0,.21-.05.31a128.7,128.7,0,0,0-1.54,39c1,9.62.25,22.08,7.5,29.49a2,2,0,0,0,3.39-1.41c3.43-37.78,9.07-76.12,9.86-114.06.39-18.75-2.15-37.65-3.73-56.31q-1.49-17.37-2.95-34.73c2-26.18,4.21-50.29,4.27-57.93.13-17.51,15.29-50.41,22-66.35a268.4,268.4,0,0,0,17.09-58.33c26.82-6.18,55-10.54,82.52-9.76,10.23.29,16.1,3.85,21.27,12.56A60,60,0,0,1,411,205.35c2.17,11.26.43,22.56,6.75,32.68,1.13,1.81,3.46.87,3.7-1C423.94,217.66,419.83,198.66,415,180Z"/><path class="cls-5" d="M359.5,145a13,13,0,0,0,2-6.72c-.07-2.6-1.37-5.32-1.91-7.81a44.79,44.79,0,0,1-.38-15.83c.34-2.51-3.49-3.59-3.84-1.06a51,51,0,0,0-.27,14.34c1.2,8.42,3.18,11.53-2.32,19.19-1.84,2.57-3.86,5.27-3.88,8.6,0,1.63,3.16,7.29,2.66,8.21-1.23,2.25,2.2,4.25,3.43,2,1.42-2.6.67-2.13.52-5-.14-2.48-2.46-6-1.31-9C354.92,149.86,358.34,147.13,359.5,145Z"/><path class="cls-5" d="M289.75,140.49c-15.28,7.91-31,15-42.63,28.1a82.71,82.71,0,0,0-19.25,38.93c-3.6,18.67,2.89,37.32-4.37,55.41-6.86,17.13-13.43,31.56-12.19,50.55.16,2.55,4.14,2.56,4,0-1.23-18.72,5.3-32.37,12-49.24,6.38-16.06,2.06-30.77,3.31-47.41A78.15,78.15,0,0,1,249,172.53c11.51-13.55,27.32-20.6,42.79-28.61C294,142.74,292,139.31,289.75,140.49Z"/><path class="cls-5" d="M317.42,130.46c-18.19-3.12-35.22-1.32-51.73,7.25-2.27,1.18-.26,4.61,2,3.43,15.5-8,31.55-9.78,48.66-6.85C318.86,134.72,319.94,130.89,317.42,130.46Z"/><path class="cls-3" d="M302.45,178.82c-.95-2.45-1.88-4.92-2.84-7.37-.52-1.34-.93-2.76-2.59-2.93a2.74,2.74,0,0,0-2.72,1.79c0,.05,0,.09,0,.14a1.75,1.75,0,0,0-.14,1.49q1.28,3.94,2.53,7.91c.65,2,1.08,5,2.31,6.79,1.88,2.67,5.09.83,5.24-2C304.31,182.68,303.15,180.64,302.45,178.82Z"/></g></g></g></svg>