<svg xmlns="http://www.w3.org/2000/svg" xmlns:xlink="http://www.w3.org/1999/xlink" viewBox="0 0 655.24 974.35"><defs><style>.cls-1{fill:none;}.cls-2{clip-path:url(#clip-path);}.cls-3{fill:#fff;}.cls-4{fill:#456664;}.cls-5{fill:#ffa894;}.cls-6{fill:#db6e56;}.cls-7{fill:#c2563e;}.cls-8{fill:#232c44;}.cls-9{fill:#ad4444;}.cls-10{fill:#f7886d;}.cls-11{fill:#fff8f0;}.cls-12{fill:#f2e7e1;}.cls-13{fill:#fad3b1;}</style><clipPath id="clip-path"><circle class="cls-1" cx="327.62" cy="327.62" r="327.62"/></clipPath></defs><g id="Layer_2" data-name="Layer 2"><g id="Layer_1-2" data-name="Layer 1"><g class="cls-2"><circle class="cls-3" cx="327.62" cy="327.62" r="327.62"/><path class="cls-4" d="M435.28,539c.7,1.63,1.39,3.22,2,4.81.77,1.91,1.55,3.79,2.35,5.7q14.94,36.36,31.64,72,3,6.42,6.12,12.8Q484,647.91,491,661.45c1.62,3.17,3.27,6.34,4.92,9.49,3.27,6.26,6.62,12.48,10,18.67l.59-.55c8.75-8.29,17.34-16.75,25.87-25.27,29.28-29.22,58.24-58.41,90.27-84.38-5.69-5.12-12.83-9.32-19.13-13.15-17-10.28-34.71-15.39-48.18-30.72a216.6,216.6,0,0,0-37.14-34.12c-28-19.9-60.75-33.69-95-34.81-.16.44-.31.9-.45,1.35-.4,1.2-.8,2.43-1.16,3.66l-.21.7a.07.07,0,0,1,0,.06c-.27,1-.56,2-.8,2.95-.32,1.26-.62,2.54-.86,3.83a1.7,1.7,0,0,0-.07.34c1.43,7.45,2.16,19.05,3.6,26.74C425.24,517.32,430.68,528.41,435.28,539Z"/><path class="cls-5" d="M430.8,475.74l-18.05,5.52c-1.37.43-2.81.87-4.29,1.31-21.28,6.51-5.93,33.84-22.19,38.67-1.92.56-7.8-.53-15.1-2.33-17.08-4.25-42-12.44-42.21-12.43s-2.91-.76-7.21-2.08c-10.77-3.28-31.77-9.94-51.05-16-8.8-2.78-17.22-5.46-24.13-7.67h0l-5.49-1.78-11.56-3.69,7.51-3.6,3.56-1.7.46-.22,9.91-4.75h0l15.78-7.56S321.26,477,323,476.55s46.79-22.43,46.79-22.43l40.56,14.37.42.14,3.83,1.35,6.6,2.34L423,473Z"/><path class="cls-6" d="M389.69,117.56c-.7-7-6.14-11.88-8-18.41-2.22-7.69-.27-15.47,0-23.28,0-1.07.07-2.15,0-3.2-.18-9.5-3.25-18-11.65-23.76C363,44,354.52,41.54,345.89,43.17c-6,1.14-10.24,5.2-15.42,8a34.22,34.22,0,0,0-6.87,4.79,102.18,102.18,0,0,1-13.37,4.42c-7.17,1.9-14.25,4.39-18.58,10.8-5.72,8.44-6.45,20.56-8.47,30.29a121.93,121.93,0,0,0-2.83,20.12c0,.62,0,1.26-.06,1.9a35.54,35.54,0,0,0,.46,15A22.58,22.58,0,0,0,282.5,143c3.77,7.58,11.18,11.69,20.17,11.22,5.53-.27,10.91-2,16.4-2.45,8-.69,13.33,3.84,20.63,5.5a4.69,4.69,0,0,0,.72.17,29.14,29.14,0,0,0,8.45.41,33,33,0,0,0,4.93-.79c.41-.07.85-.17,1.26-.28A53,53,0,0,0,377.91,144C385.6,136.67,390.64,127.24,389.69,117.56Z"/><path class="cls-7" d="M389.69,117.56c-.7-7-6.14-11.88-8-18.41-2.22-7.69-.27-15.47,0-23.28,0-1.07.07-2.15,0-3.2a99.5,99.5,0,0,1-6,17.66c-6.76,14.18-17,20-32.43,18.93-8.61-.6-14,.74-20.32,6.59-9.15,8.43-31,14.42-42.68,5.71,0,.62,0,1.26-.06,1.9a35.54,35.54,0,0,0,.46,15A22.58,22.58,0,0,0,282.5,143c3.77,7.58,11.18,11.69,20.17,11.22,5.53-.27,10.91-2,16.4-2.45,8-.69,13.33,3.84,20.63,5.5,2.86,0,5.73-.07,8.59-.18,1.81-.07,3.59-.15,5.38-.25.48,0,.94,0,1.39-.06A53,53,0,0,0,377.91,144C385.6,136.67,390.64,127.24,389.69,117.56Z"/><path class="cls-6" d="M437.42,202.88c-1.89-6.27-4.76-12.77-9.31-17.56-.8-.87-1.86-1.53-2.66-2.4-3-3.28-3.74-4.42-5.2-9.07-.91-2.81-1.19-4.85-2.89-7.46-3.24-5-8.33-8.14-13.64-10.48-8.84-3.89-17.36-7.13-25.81-11.95l-.32-.19c-12.2-7.05-24.52-7.8-37.2-5a32.47,32.47,0,0,0-12.16-3.25c-8.56-.59-17,2-25.19,4-6.75,1.68-13.69,2.36-20.54,3.47-3,.52-6,1.11-8.95,1.9-32.37,8.78-45.77,42.25-50.62,72.71-3.06,5.63-6.67,10.58-7.73,17.14-1.12,6.82-.36,14-1.17,20.88-1,8.25-1.46,15.59.93,23.63a73.57,73.57,0,0,0,4.09,10.55c.47,1,1,2,1.45,3,1,6.48,4.33,11.66,8.67,16.22a100.38,100.38,0,0,1,4.33,9.36c.5,1.23,1,2.49,1.4,3.77l.06.18a2.21,2.21,0,0,0,3.9.49,1.8,1.8,0,0,0,.11-1.53l-.11-.34c-.09-.23-.16-.47-.26-.69-.46-1.35-1-2.67-1.52-4,.43.35.86.69,1.27,1l1.69,1.4.68.55q3.27,2.7,6.55,5.46c10.06,8.44,20.2,17,31.55,23.54,27.5,15.84,57.81,23.07,88.66,12.86a107.74,107.74,0,0,0,40.9-25.29c1.51-1.46,2.95-3,4.36-4.53s2.84-3.21,4.18-4.89a101,101,0,0,0,12.62-20,41.85,41.85,0,0,0,1.81-4.47c4.5-13.47,1.29-27,5.81-40.73,3.37-10.26,3.24-20.14,1.51-30A58.48,58.48,0,0,0,437.42,202.88Z"/><path class="cls-5" d="M355.46,392.33c-10.52.64-20.69.7-31.09-1.12a190,190,0,0,1-33.12-9.32c-4.39-1.63-9-3.31-12.51-6.74-3.19-3.11-5-7.39-7.56-11.12-1-1.42-3.07-.22-3.1,1.35q-.43,19.17-.89,38.37c0,.27,0,.55,0,.83a.12.12,0,0,1,0,.1c-.33,14.87-.67,29.79-1,44.66,0,.28,0,.56,0,.84l-.18,7.58c-.15,6.95-.31,13.92-.49,20.87,0,2.67-.11,5.33-.16,8q-.29,11.92-.54,23.79a2,2,0,0,0,1.27,1.95c25.11,9.22,49.9,94.16,76.39,93.18,6.32-.2,22.07-54.18,28.34-55,3.09-.42,18.91-18.51,18.91-18.51l-12.62-39.89.55-12,1-22.85,2.23-49,.91-20S362.07,391.91,355.46,392.33Z"/><path class="cls-5" d="M239.08,216.28c6.42-6.08,36.16-26.21,44.35-26.52,13.74-.5,42-6.64,55.71-6.34,31.22.69,51.94,13.47,70.13,33.42,1.17,1.28,2.4,1.85,2.26,3.13a2.13,2.13,0,0,1,1,1.58c2.4,37,.83,108-11.14,148.59-6.49,22-24.47,48.08-44.68,60.21-41.31,24.81-65.81,4-89.6-25.77-28.28-35.35-27.35-74.47-31.36-120.24C234.73,272.74,232.93,222.1,239.08,216.28Z"/><path class="cls-8" d="M276,301.49a35.21,35.21,0,0,1-.36-10.94,10,10,0,0,1,2.15-4.77c3.46-3.75,7.72-.18,8.75,3.49,1.33,4.77,1.38,15.23-3.06,17.75S276.92,306.21,276,301.49Z"/><path class="cls-8" d="M362.25,301.22a34.83,34.83,0,0,1-.36-10.93,9.8,9.8,0,0,1,2.14-4.77c3.46-3.75,7.73-.18,8.75,3.49,1.34,4.77,1.39,15.22-3,17.74C365.13,309.36,363.19,306,362.25,301.22Z"/><path class="cls-5" d="M246.83,309.33c-.26-5.47-1-10.64-3.09-15.28a1.34,1.34,0,0,0-.22-.51.7.7,0,0,0-.1-.16,24.3,24.3,0,0,0-3.47-5.24c-.25-.29-.52-.56-.78-.85a2,2,0,0,0-2.13-.51c-.39-.29-.77-.55-1.16-.82a22.66,22.66,0,0,0-2.31-1.32c-5.58-2.73-11.47-2.2-14.52,5.15a20.86,20.86,0,0,0-.94,2.8C214,308,217,327.86,227.48,339.88c1.36,1.55,3.14,3.55,5.05,5.49a39.23,39.23,0,0,0,7,5.81,8.15,8.15,0,0,0,3.66,1.34c2.51.14,4.26-2,4.25-8.41s0-12.93-.14-19.42C247.19,319.56,247.05,314.43,246.83,309.33Z"/><path class="cls-9" d="M297.72,370.86s6.29,7.49,11.48,9.37c4.77,1.72,10.55,4,15.64,3.86,6.36-.12,12.74-2.33,18.36-5.18,3.37-1.69,10.68-8.93,10.68-8.93Z"/><path class="cls-10" d="M354.51,427.48c-13.92,10.27-34.53,11.72-50,4.37C290,425,279.13,416.42,267.17,404.58v.1c-.33,14.87-.69,29.79-1,44.66,0,.28,0,.56,0,.84,5.79,1.13,11.46,3.11,17.39,3.64,9.65.81,17.68-5.19,27.36-4.82,8.63.34,16.88,2.13,24.82-2.24a64.43,64.43,0,0,0,17.35-14.3c1-1.19,1.94-2.39,2.79-3.59C356.42,428.1,355.32,426.9,354.51,427.48Z"/><path class="cls-6" d="M306.84,266.7c-1-4.32-7.39-5.66-11-6.53-14.66-3.54-32,1-43,11.33-2.53,2.36,6.6,1.5,7.27,1.36,9-1.82,18.21-2.13,27.37-2.1,4.55,0,9.11.17,13.67.2C303.85,271,307.69,270.41,306.84,266.7Z"/><path class="cls-6" d="M397.39,274.4c-10.59-10.75-27.77-16-42.56-13.06-3.65.73-10.07,1.83-11.24,6.11-1,3.67,2.82,4.38,5.55,4.48,4.56.13,9.12.16,13.68.34,9.14.35,18.34,1,27.26,3.19C390.76,275.62,399.83,276.87,397.39,274.4Z"/><path class="cls-10" d="M239,334c-3.21-1.3-9.19-12.89-.93-12.92a2,2,0,0,0,2-2.48q-2.87-12.75-5-25.63c-.41-2.52-4.27-1.53-3.86,1q1.93,11.79,4.52,23.46c-9.22,2.21-6,17.13,2.14,20.4C240.25,338.77,241.36,335,239,334Z"/><path class="cls-5" d="M431.35,301.93c-.22-1.74-.51-3.43-.88-5.08-2.51-11.31-10.41-11.53-17.37-7.41a3.4,3.4,0,0,0-.5.31l-.82.52a2.09,2.09,0,0,0-1.46,0,2,2,0,0,0-.68.44,23.66,23.66,0,0,0-4.49,5.91l-.11.15a1.63,1.63,0,0,0-.24.5c-2.33,4.57-3.22,9.71-3.68,15.16-.91,10.41-1.41,20.95-1.85,31.41,0,1.12-.09,2.21-.14,3.31-.32,7.89,2.31,9.48,5.89,8.19a15.5,15.5,0,0,0,3.6-1.95,47.08,47.08,0,0,0,6.17-5.18c1.68-1.59,3.22-3.19,4.43-4.48C429,333.36,433.08,316.52,431.35,301.93Z"/><path class="cls-10" d="M407.93,337.37c3.25-1.16,9.7-12.51,1.45-12.87a2,2,0,0,1-1.87-2.55q3.36-12.63,6-25.41c.51-2.51,4.32-1.37,3.81,1.13q-2.4,11.71-5.45,23.26c9.12,2.58,5.27,17.35-2.95,20.3C406.5,342.09,405.54,338.23,407.93,337.37Z"/><path class="cls-10" d="M326.69,346.1c-12.29-5.44-6.27-16.2-4.81-25.79,1.33-8.74,2.48-17.51,3.71-26.27.36-2.53-3.62-2.58-4-.08-1,7.1-2,14.19-3,21.28-1,6.83-4.39,14.2-4.69,20.93-.31,7.27,5.74,11.14,11.63,13.74C327.89,351,329,347.12,326.69,346.1Z"/><path class="cls-6" d="M416.8,247.32c-.32-12.56-.48-26.53-5.61-38.24-7-16.05-23.45-24.51-40.56-28.3-1.29-.3-2.59-.56-3.89-.79a110.15,110.15,0,0,0-11.33-1.46c-1.43-.11-2.85-.18-4.22-.24s-2.45-.1-3.65-.1C332,178,316.46,180.47,301.12,183c-14.35,2.33-28.46,5.32-41.55,11.84-2.19,1.09-4.5,2.19-6.83,3.36-1.82.92-3.64,1.89-5.4,2.9-6.51,3.79-12.27,8.52-14.39,15.64-3.74,12.47-3.92,53.38.62,67.94.73,2.38,1.6,4.05,2.6,4.79a2,2,0,0,0,2.47,0,5.54,5.54,0,0,0,1.31-1.25c2.68-3.45,2.72-10.21,2.94-13.86.68-11.33.2-21.87,4.08-32.76,3.6-10.06,9.18-19.27,14.92-28.21,6.39-9.93,12.83-18.81,25.24-20.85,9.86-1.61,20.14-.48,30.1-1.47,8-.82,16.23-1.37,24.3-.38s15.15,4.5,22.9,6.84c12.8,3.87,28.62,4,36,17.18,5.53,9.93,4.47,24.47,5.46,35.5q1.71,19.26,3.45,38.51a2.28,2.28,0,0,0,1,1.62,1.7,1.7,0,0,0,2.25.05,1.89,1.89,0,0,0,.42-.59c0-.1.08-.18.11-.28C418.62,277,417.15,260.64,416.8,247.32Z"/><path class="cls-7" d="M357.14,166.12a23.55,23.55,0,0,0-4.42-10.69c-2.59-3.5-10.59-8.21-10-12.9.31-2.54-3.67-2.6-4-.08-.57,4.68,1.71,7.18,5.1,10.06,9.44,8,13.22,19.3,4.66,29.91-1.58,2,1.15,4.86,2.76,2.87C355.71,179.74,358.19,173.33,357.14,166.12Z"/><path class="cls-7" d="M367.29,165.27c-1.33-2.18-4.81-.26-3.48,1.94a20.13,20.13,0,0,1,2.52,15.29c-.58,2.48,3.23,3.63,3.81,1.13A24.27,24.27,0,0,0,367.29,165.27Z"/><path class="cls-7" d="M254.42,218.3c-10.52-4.74-1.13-16.9-1-23.94,0-3.1-1.45-4.41-2.42-7.12-2.8-7.89-2.87-14.46,1.2-22,1.22-2.24-2.17-4.32-3.39-2.07-2.72,5-4.33,10.18-4,15.95.48,7.28,4.72,12.7,3,20-1.79,7.55-4.47,18.49,4.55,22.56C254.66,222.74,256.75,219.35,254.42,218.3Z"/><path class="cls-7" d="M332.1,93.7c-6.71-8.94-4.82-22.47-2.66-32.78.52-2.49-3.29-3.64-3.81-1.13-2.54,12.08-4.22,26.24,3.6,36.67C330.77,98.5,333.62,95.73,332.1,93.7Z"/><path class="cls-11" d="M439.82,491.41c-.54-4.26-5.79-25.78-13.78-19.7,0,0-.06.06-.08.08A9.47,9.47,0,0,0,423,473a5.29,5.29,0,0,1-1.56.51l.31-.95-.62-.22-6.6-2.34-3.83-1.35-.42-.14c-7.15,4.9-74.18,111.36-74.18,111.36S251.61,465.16,251,464.94h0c-2.13-.71-7.8,1.14-11.64,2.56v0c-1.89.7-3.35,1.28-3.74,1.43l-.06,0c-1.34.42-2.67,1.12-3.89,1.56l-7.43,2.74-2.54,1c-3.3,1.24-6.88,2.58-7.43,6.52a.65.65,0,0,0,0,.24,12.71,12.71,0,0,0,.6,4.73v0c.34,1.23.76,2.41,1.07,3.51q1.41,5,3,9.9c2.13,6.85,4.45,13.68,6.87,20.45,2.8,7.83,5.75,15.59,8.78,23.32C242,562,249.88,581,257.1,600.16c6.9,18.36,9.84,218.26,15.33,237.07q2.34,7.95,4.56,16l1.62,5.94c.59,2.11,1.15,4.22,1.71,6.33,1.65,6.11,3.24,12.23,4.82,18.37.3,1.18.62,2.39.91,3.57,1.78,7,3.53,14,5.28,20.92l.16.62c.39,1.54.77,3.08,1.16,4.63,1.37,5.39,2.71,10.8,4.08,16.21.29,1.16.57,2.35.83,3.55,1.15,5.08,2.23,10.36,4.43,15,5,10.48,11.12,26.32,20.72,26,7.55-.24,20.79-19.58,28.32-19.82,6.34-.2,13.08.18,19.3-1.33,10.8-2.63,17.48-12.89,22.72-21.93,6.51-11.2,14.31-204.66,18.6-216.85a368.62,368.62,0,0,0,18.7-82.92c.43-4.06.77-8.13,1.06-12.17.55-7.86.86-15.73,1.11-23.61.05-2,.11-4,.16-6,.16-5.24.29-10.47.46-15.71.37-11.69.91-23.39,2.14-35,.24-2.19.49-4.37.78-6.55.68-5.09,1.61-10.21,2.42-15.35.4-2.56.77-5.12,1.07-7.68A75.74,75.74,0,0,0,439.82,491.41Z"/><path class="cls-4" d="M38.32,709.46q9.47-.19,19-.31c77-.91,154.08,2.33,231.1.82-1.67-30.32-4.84-59.94-12.31-89.83-4.33-17.28-10.38-34.09-13.77-51.6-1-5.24-1.88-10.52-2.67-15.8-7.82-21.2-17.84-44.94-23.29-53.23-5.12-7.79-11.4-17.58-12.28-27.42a33.56,33.56,0,0,0-4.42.88c-2.07.56-4.17,1.12-6.24,1.71-1.48.38-3,.79-4.42,1.19-9.86,2.68-19.68,5.42-29.37,8.43q-2.61.81-5.18,1.64c-6.92,2.21-13.76,4.61-20.51,7.25A224,224,0,0,0,114.21,513c-17.47,11.19-32.4,25.37-45.44,41.46-6,7.42-11.63,15.14-17.14,22.93-5.94,8.43-13,17.06-17.26,26.49-8,17.8-3.65,42-1.78,60.74C34.09,679.64,36.23,694.55,38.32,709.46Z"/><path class="cls-4" d="M442,702.16c28.15-1.88,56.38-3.43,84.57-2.68.12-.73.23-1.46.35-2.19,5.92-36.72,10.91-73.8,10.69-111.08-.19-29.28-1.78-60-27.11-78.88C484.61,488.05,454,475.47,422.69,468c-.81,2.43-1.57,4.88-2.2,7.38-3.14,12.41-3.08,25.05-4.8,37.65-2.25,16.45-7.86,32-13.67,47.47-2.39,31.86-3.18,63.83-5.31,95.72-1.11,16.63-2.62,33-5.19,49.25Q416.74,703.88,442,702.16Z"/><path class="cls-8" d="M229.1,651.3c-16.88,16.82-21.63,41.2-18.45,64.37A145.37,145.37,0,0,0,221,753.54a30.11,30.11,0,0,0,4.91,7.85C228.55,724.76,227.05,688,229.1,651.3Z"/><path class="cls-8" d="M289.23,728.54q-.42-11-1-21.83c-1.21.64-2.3,1.25-3.23,1.78,1-1.73,2-3.52,3-5.35-.66-10.45-1.53-20.82-2.72-31.16-6.72,11.16-13.17,22.48-19.54,33.84-11.12,19.81-23.11,39.29-34.06,59.23,19.18-9.49,38.19-19.46,55.63-31.95l2.09-1.51C289.32,730.57,289.26,729.56,289.23,728.54Z"/><path class="cls-8" d="M289.64,736.85c-17,12.12-35.44,21.95-54.11,31.22a25.57,25.57,0,0,0,5,1.4c7.54,1.33,15.3,0,22.69-2,9.89-2.68,19.49-5.18,28.29-9.64Q290.26,747.36,289.64,736.85Z"/><path class="cls-8" d="M282.13,649.59a115.28,115.28,0,0,0-33,51.48,254.75,254.75,0,0,0-14.82-50.8,2.31,2.31,0,0,0-.61-.87c-2.14,36.1-.83,72.34-3.15,108.42,10.74-19.26,22.3-38.16,33.09-57.34,6.74-12,13.61-23.88,20.79-35.59C283.72,659.79,283,654.68,282.13,649.59Z"/><path class="cls-8" d="M402.69,565.72c.59,23.82,15,44,34,57.68A145.52,145.52,0,0,0,471.31,642a30.12,30.12,0,0,0,9.07,1.83C455.63,616.66,427.88,592.43,402.69,565.72Z"/><path class="cls-8" d="M502.08,579.78c2.57-18.61,4.14-40.24,1.54-59.69-9.91,6.86-18.42,33.71-21,44.44-6.91-23.28-19.17-52.92-36.5-70.23a1.85,1.85,0,0,0-.59-.38c5.36,28.06,13.44,55.47,21.9,82.74,6.73,21.71,12.62,43.8,19.55,65.47C493.31,621.69,499.15,601,502.08,579.78Z"/><path class="cls-8" d="M507.26,574.23c-2.54,22.92-8.65,45.18-15.4,67.17a26.23,26.23,0,0,0,4.45-2.67c6.15-4.56,10.5-11.12,14.13-17.86,7.29-13.53,14.45-26.3,15-42.06A86.63,86.63,0,0,0,520,545.19c-1.07-2.81-7.54-17.57-11.71-23.59C510.23,538.94,509.11,557.51,507.26,574.23Z"/><path class="cls-8" d="M462.11,574.53c-7.74-25-15-50.2-20.16-75.9a115.16,115.16,0,0,0,10.61,86.84,255.15,255.15,0,0,0-47.06-24.2,2.35,2.35,0,0,0-1.06-.16c24.73,26.4,51.92,50.38,76.52,76.88C474.37,616.94,468.61,595.56,462.11,574.53Z"/><path class="cls-8" d="M220.63,582.56a2.59,2.59,0,0,1-.53-.48c-14.42-19.8-21.91-51-25.1-75.07-4.23,10.22-16.8,35.41-27.66,40.63.45-19.61,5.37-40.74,10.81-58.72.47-1.54,1-3.09,1.45-4.62,9.69-3,19.51-5.75,29.37-8.43.93,7.19,1.87,14.39,2.92,21.54C216,525.67,219.71,554,220.63,582.56Z"/><path class="cls-8" d="M174.42,485.94c-.8,2.55-1.55,5.1-2.25,7.67-4.44,16.24-8.44,34.41-9.16,51.82-3.19-6.58-7.29-22.17-7.9-25.12a85.44,85.44,0,0,1-1.2-27.12C160.66,490.55,167.5,488.15,174.42,485.94Z"/><path class="cls-8" d="M234.53,496.75c-4.69-7.28-9.7-15.95-10.48-24.66a33.56,33.56,0,0,0-4.42.88c-2.07.56-4.17,1.12-6.24,1.71,1.09,8.56,2.2,17.14,3.42,25.65,3.75,25.95,7,51.95,8.09,78.12A115.16,115.16,0,0,0,228,491C230.12,493,232.32,494.87,234.53,496.75Z"/><path class="cls-12" d="M414.79,348.2c-.58-.58-1.15-1.12-1.69-1.62a2.57,2.57,0,0,0-4.32,1.79l-.16,5-1.54,46.75a2.57,2.57,0,0,0,3.62,2.45c6.28-2.78,18.3-10.27,18.46-27.1C429.29,364.41,420.8,354.09,414.79,348.2Z"/><path class="cls-12" d="M239.5,351.18l-.62-6.38a2.59,2.59,0,0,0-4.45-1.52c-.59.64-1.25,1.34-1.9,2.09-5.59,6.33-13.07,16.93-12.29,27.77,1.25,16.79,13.7,23.5,20.16,25.88a2.57,2.57,0,0,0,3.45-2.67Z"/><path class="cls-3" d="M231.08,359.23c-5.78,2.81-6.71,11.83-5.42,17.4,1.59,6.77,10.23,10,12.15,1.54C238.61,374.67,238.56,355.57,231.08,359.23Z"/><path class="cls-3" d="M417.39,363.77c-7.7-3.18-6.52,15.89-5.52,19.34,2.46,8.35,10.87,4.57,12-2.32C424.83,375.15,423.34,366.21,417.39,363.77Z"/><path class="cls-13" d="M397,463.68c-.18,1.43-.38,2.83-.63,4.24q-.54,3.61-1.24,7.18c-5.95,30.83-18.19,60-28,89.85a313.09,313.09,0,0,0-12.61,52.65c-.8,5.55-1.62,11.1-2.84,16.55l-1.93-.64c-2-.65-2.74,2.52-.77,3.17.65.21,1.29.44,2,.64a74.31,74.31,0,0,1-3.5,10.5c-1.53-.35-3.05-.67-4.58-1a1.61,1.61,0,0,0-1.94,1.56,1.44,1.44,0,0,0-.36,1.53c.76,2.37,1.54,4.74,2.31,7.11-1.63,2.94-3.38,5.8-5.18,8.63a1.47,1.47,0,0,0-1.74.75l-1.11,2q-1.37-6.27-2.84-12.53a51.69,51.69,0,0,1,3.6-3.81c1.53-1.45-.85-3.68-2.37-2.24-.75.71-1.47,1.45-2.17,2.2-.77-3.18-1.53-6.37-2.35-9.56,1.28-1.28,2.59-2.52,3.95-3.71,1.59-1.38-.79-3.61-2.36-2.24-.88.76-1.72,1.54-2.54,2.33-1.67-6.43-3.4-12.83-5.25-19.19a8.58,8.58,0,0,0,4.3-8.81,7.89,7.89,0,0,0-6.81-6.5,1.61,1.61,0,0,0-.92-.31,7.16,7.16,0,0,0-1.24.1,732.64,732.64,0,0,0-55.36-130.61h0c-1.3-2.39-4.05-7.42-5.93-10.78-1.55.57-2.74,1.05-3.06,1.17,1.45,2.61,3.65,6.59,4.5,8.16a728.27,728.27,0,0,1,56.81,133.14,9.56,9.56,0,0,0-4.43,8.27c0,4.89,4.52,7.78,9.11,7.18,2,6.91,3.86,13.84,5.66,20.81a77.78,77.78,0,0,0-5.5,6.37c-1.29,1.64,1.08,3.89,2.37,2.22s2.68-3.28,4.1-4.84c.82,3.25,1.61,6.53,2.38,9.8a51.5,51.5,0,0,0-3.53,5c-1.13,1.78,1.74,3.32,2.86,1.56.52-.85,1.08-1.65,1.65-2.45,1,4.5,2.06,9,3,13.53-3.48,6-7.12,12.13-9.75,18.4-2.49,6,2,7.5,3.69,13.17,1.37,4.63-3.52,30,6.91,28.21,3.79-.66,5.62-5.15,6.09-8.44s-.45-6.22-.56-9.41c-.17-4.77,1.51-8.8,3-13.23,2.32-7.08,2-14.57,1.31-21.9-.41-4.16-.56-8.45-3.05-11.7,1.42-2.31,2.74-4.64,4-7,.59,1.89,1,5.3,2.5,6.56,1.07.84,2.2.4,3.16-.27,2.42-1.72,4.46-4.72,6.48-6.9,1.78-1.93,7.85-6.33,4.2-9.2-1.67-1.33-5-1.43-7-1.88l-3.36-.72c1.36-3.29,2.54-6.68,3.59-10.15,1.47.49,2.93,1,4.41,1.45,2,.66,2.74-2.51.77-3.17q-2.16-.69-4.29-1.41a104.39,104.39,0,0,0,2.35-11c2.93-19,6.65-37.32,12.54-55.65,10.09-31.39,23.22-62,29.2-94.4.41-2.18.78-4.38,1.11-6.57.14-.89.26-1.77.38-2.67ZM313.64,613.41a6.17,6.17,0,0,1,2.2-4.9c.91,3,1.81,6,2.68,9C316,617.62,313.64,616.19,313.64,613.41Zm7.95,3c-.88-3-1.79-6-2.72-9C323.73,607.4,325,613.8,321.59,616.43Zm15.87,87.28c-1,2.77-2,5.18-2,8.18-.05,2.83.77,5.55.87,8.35-.05,1.38-.11,2.75-.16,4.12q-6.27,5-5.9-.55c-2.34-7.55,1.95-15.71-1.7-23.3-1.59-3.26-2.59-2.94-2-7.18.52-3.53,1.8-5.87,3.45-8.94s3.29-6.12,4.94-9.19a2,2,0,0,0,.86-.66c.8-1.23,1.6-2.48,2.37-3.69,2.17,4,1.94,10.12,2.15,14.16A45.78,45.78,0,0,1,337.46,703.71Zm6.74-53.28,1.87.41c-.35.73-.67,1.46-1,2.17C344.74,652.16,344.47,651.3,344.2,650.43Zm13.75,3c.16.42-3.84,4.3-4.55,5.05s-3.32,4.36-4.86,5.62a73.56,73.56,0,0,1-2.21-7.06,1.84,1.84,0,0,1-.09-.25c.89-1.76,1.74-3.55,2.53-5.33l1.27.27C351.1,651.92,357.68,652.63,358,653.4Z"/></g></g></g></svg>