<svg xmlns="http://www.w3.org/2000/svg" xmlns:xlink="http://www.w3.org/1999/xlink" viewBox="0 0 655.24 881.53"><defs><style>.cls-1{fill:none;}.cls-2{clip-path:url(#clip-path);}.cls-3{fill:#fff;}.cls-4{fill:#232c44;}.cls-5{fill:#456664;}.cls-6{fill:#e08a70;}.cls-7{fill:#33261a;}.cls-8{fill:#cc6a4e;}.cls-9{fill:#bf5c3f;}.cls-10{fill:#6b3939;}.cls-11{fill:#294543;}.cls-12{fill:#f2e7e1;}.cls-13{fill:#485a7e;}.cls-14{fill:#aeb5c2;}</style><clipPath id="clip-path"><circle class="cls-1" cx="327.62" cy="327.62" r="327.62"/></clipPath></defs><g id="Layer_2" data-name="Layer 2"><g id="Layer_1-2" data-name="Layer 1"><g class="cls-2"><circle class="cls-3" cx="327.62" cy="327.62" r="327.62"/><path class="cls-4" d="M39.27,620.26C63,634.2,86.16,648.1,110.76,660.4c12.77,6.39,25.24,12.94,37.29,20.16q-1-45.9-6.56-91.56-4.16-34-10.79-67.63-3.28-16.67-7.21-33.21c-1.19-5-1.79-12.32-7-14.42,8-5.88,16.57-10.42,26.29-11.33,2.53-.24,2.55-4.22,0-4-15.52,1.46-27.24,10.89-38.58,20.83-22.94,20.08-44.95,40.3-66.12,62.24-11.78,12.21-22.9,25.93-30.57,41.17-1.71,3.39-2.11,7.26-2.6,11a43,43,0,0,1-1.36,6.61Q21.67,609.9,39.27,620.26Z"/><path class="cls-5" d="M433.1,149.58c-13.26-22.07-36.26-39.51-59.89-51.7C340.64,81.07,304,85.58,270.1,94.5c-23.53,6.2-31.91,18.19-41.82,39.16-7.8,16.51-22.27,24.5-24.57,43-1.87,15.12-2.74,30.38-3.45,45.6-1.53,32.77-2.34,65.85-.51,98.64.29,5.14.62,10.31,1.35,15.42,2,14.19,8.09,41.93,17.18,53.2,11.1,13.75,50.78-1.28,57.89,8.62,12.24,17,27.13,21.61,47.77,18.86,37.3-5,91,24.16,99.66-19.53,5.09-25.77,20.21-27,23.42-53C450.47,316.48,445.4,170,433.1,149.58Z"/><path class="cls-6" d="M447.7,453.4c-20.34-12.59-54.67-18.32-64.51-43-5.25-13.1-2.72-29.61-2.53-43.41q.3-21.36.6-42.71c0-1.79-2.33-2.15-3.18-.82-5.53,8.51-18.91,7.48-27.72,8-10.08.63-20.21.71-30.31.59-18-.2-35,1.63-51.18-7.55-.12-2-.22-4-.36-6-.12-2.19-3.56-2.15-3.42.06.12,1.95.22,3.92.34,5.89a1.73,1.73,0,0,0,.09,2q.57,9.49,1,19c.1,2.24.2,4.51.28,6.76,0,.73.06,1.49.08,2.22.49,14.12,1,28.26,1.19,42.36.06,3.66.08,7.32.08,11,0,14.32-17.16,26.43-26.65,35.26A163,163,0,0,1,217,461.39c-6.76,4.24-14.45,7.38-19.25,14a1.72,1.72,0,0,0,.64,2.33c19.59,9.88,39.57,18.89,60,26.88,19.27,7.6,41,17.7,62.28,15.39,9.36-1,17-5.11,25-9.76,9.65-5.61,19.43-10.94,29.32-16.07,4.81-2.5,9.64-5,14.45-7.42a151.7,151.7,0,0,0,38.88-7.51A149.9,149.9,0,0,0,444,473c3.6-1.67,10.2-3.7,12.57-6.86C460.88,460.3,451.8,455.92,447.7,453.4Z"/><path class="cls-6" d="M403.15,287.51c.7-4.77,1.36-9.7,2-14.74.12-1,.24-2,.37-3,.35-3,.7-6,1-9.09.19-1.72.36-3.44.53-5.18v0c.44-4.31.85-8.64,1.24-13v0q.57-6.57,1.08-13.06a.65.65,0,0,1,0-.14c2.9-38,3.63-71.68,2.29-74.61-5.52-12.12-14.49-17.74-24.75-24.63-1.77-1.18-3.58-2.41-5.44-3.71-1.46-1.05-3-2.15-4.46-3.3-10.53-8.16-25-9.27-37.79-8.94-29.77.71-58.69,3.29-84.48,19.65a87.77,87.77,0,0,0-10.21,7.46c-.92.78-1.81,1.57-2.67,2.4a52.81,52.81,0,0,0-9.59,12A33.22,33.22,0,0,0,228,169.88h0c-.59,6.94.23,14-.74,21.88,0,.24-.06.49-.07.78-.49,5.95.24,21.89,1.84,40.62.08.93.16,1.86.23,2.79h0c.28,3.35.6,6.79,1,10.25.47,4.66,1,9.36,1.53,14,.49,4.23,1,8.45,1.58,12.57,0,.27.07.53.09.8.12.88.25,1.75.37,2.62.39,2.86.82,5.66,1.25,8.38.38,2.51.79,5,1.21,7.32,0,.07,0,.14,0,.21,1.68,9.49,3.51,17.53,5.42,22.8,4.62,12.74,10.87,26.2,19.25,36.35,11.73,14.21,26.46,24.47,44.24,27.8,6.94,1.33,15.08.39,22.77-.66a97.65,97.65,0,0,0,13.26-2.76c2.86-.81,5.67-1.75,8.39-2.81A81.51,81.51,0,0,0,374,358.19a72,72,0,0,0,21.47-33.12C398.47,315.47,401,302.31,403.15,287.51Z"/><path class="cls-4" d="M571.48,571.58c.44-20.75,6.53-42.17,1.57-62.77-6-24.71-25.89-31.43-45.11-44.53-15.17-10.34-30.53-20.32-47.81-26.81-32.6-12.24-66.56-17.84-101-21.62-35.07-3.84-70.67-8.28-106-5.42a200,200,0,0,0-45.56,8.94,2.06,2.06,0,0,0-2.57-.71l-52,23.68c-15.79,7.18-33.09,13.25-47.81,22.49-23.87,15-24.12,44.83-25.68,70-1.12,18.09-2,36.21-1.42,54.35.57,18.74,1.32,36.76-3.54,55.09-2.43,9.2-5.61,18.18-8.56,27.22,2.6,1.12,10,3.68,10.93,5.15,1.24.47,2.48,1,3.73,1.4a243.46,243.46,0,0,0,23.33,7c33.63,8.46,66.88,18.36,100.55,26.68,7.64,1.89,15.32,3.72,23,5.31,33-.18,66-1.19,98.88-2.81,24.86-1.23,49.69-3,74.46-5.42,13-1.28,26-2.8,39-4.41l1.82-.23,1.79-.26c3.26-.47,6.53-.92,9.79-1.41q8.21-1.21,16.39-2.54c12.33-2,24.8-3.77,36.75-7.53,2.46-.78,4.86-1.7,7.3-2.55l.69-.38c3.46-1.89,7-3.59,10.36-5.64,4.53-2.73,8.81-5.8,13.1-8.9l.45-.36c1.22-1,2.46-2,3.69-3q5.82-4.76,11.6-9.55C571.89,632.25,570.83,602.3,571.48,571.58Z"/><path class="cls-3" d="M375.53,571.81c-2.35,3.62-15.19,38-12,83,1.32,18.79-12,74.59-14.28,97.12-.59,5.81-.91,9.35-.91,9.35s-1.25-4.85-3.08-12.39c-5.05-20.7-14.48-61.61-14.32-77.26.24-21.35-6.68-50.75-16.31-75.46s-1.81-49.86-11.25-67-42.26-69.66-42.26-69.66,103.41,4.28,109.11,0,20.15,16.21,22,16.23S377.88,568.17,375.53,571.81Z"/><path class="cls-7" d="M282.84,258.21a35,35,0,0,0,.06-11,10,10,0,0,0-2.28-4.75c-3.58-3.67-7.78,0-8.71,3.75-1.22,4.84-1,15.37,3.55,17.78C280.16,266.49,282,263,282.84,258.21Z"/><path class="cls-7" d="M372.1,258a33.58,33.58,0,0,0,.07-10.58,9.54,9.54,0,0,0-2.2-4.56c-3.44-3.53-7.47,0-8.37,3.6-1.17,4.65-.94,14.76,3.42,17.08C369.53,266,371.32,262.6,372.1,258Z"/><path class="cls-8" d="M337.07,277.89c-2.76-8.93-5.2-17.61-5-27.06.05-2.56-3.93-2.56-4,0-.19,9.21,1.9,17.65,4.62,26.41,1.39,4.48,4,9.76,4.06,14.49.19,10.13-12.37,11.12-20.24,11-2.56,0-2.56,4,0,4,7.86.08,22,.13,24.34-9.72C342.35,290.88,338.81,283.53,337.07,277.89Z"/><path class="cls-9" d="M322.76,323.9c-14.85.4-28.07-5.34-27.44-3.75,8.3,21,49.45,22.13,57.22.19C353,319,346.46,323.28,322.76,323.9Z"/><path class="cls-5" d="M460.07,427.07c-4.58-10.68-12.53-15.89-20.58-23.67-10.9-10.5-11.82-27.4-16.41-41.2q-2.81-8.44-6.28-16.63c-1.77-4.17-3.8-12-7.44-14.91-6.94-5.53-10.58,4.57-15.35,8.77-10,8.79-25.52,25.37-25.52,25.37s-13,10.54-19.68,13.77c-8.75,4.21-17.07,8.8-26.87,8.65-15.11-.22-44.07-20.33-54-27.09.06,2-10.16-12.61-10.64-12.81-.42-1.31-.83-2.62-1.25-3.93a2,2,0,0,0-3.22-.94c-15.41-5.41-21.2,39.3-23.53,47.49a32.38,32.38,0,0,1-1.07,3.24c-2.8,7.34-7.32,11.54-14.34,16-1.65,1.05-3.26,2.11-4.83,3.2a63.54,63.54,0,0,0-8.49,7c-4,4-11.68,11.06-7.22,17.2,3,4.16,10.3,5.89,14.69,7.76q8.57,3.63,17.33,6.8c7.53,2.7,16,4.33,23.18,8,5.57,2.85,9.59,7.62,15.43,10.06,9.63,4.06,20.45,3.19,30.67,3.41,16.4.35,32.69,3.42,49.14,3.12,14.27-.24,26.58-4.62,40.07-8.73,15.37-4.7,31.36-3,47-6.07,9-1.75,22.94-4.25,29.86-10.78C466.65,444.51,462.77,433.39,460.07,427.07Z"/><path class="cls-5" d="M360.65,827.73a235,235,0,0,0-.83,53.8c4.7-7,11.78-11.78,20.9-15.77,8.68-3.79,18.82-6.6,24-15.22,4-6.72,5.08-14.92,8.55-21.94,8.6-17.38,24.55-24.77,42-30.36,9.12-2.91,17.84-6.16,25.6-10.67-.23-3.48-.89-7-1.08-10-2.92-45.26-.9-90.63.41-135.91,1.32-45.58,1.28-91.18-.58-136.75-.9-22.13,3.45-48.53,1.49-70.6-1.17-13.24-6.48-29.39-20.82-31.9-11.23-2-15.85-14.47-27.18-15.78C428,386,412,406.79,406.66,407.15a60.23,60.23,0,0,1,16.7-16.78c2.15-1.38.16-4.82-2-3.43-8.43,5.42-14.63,12.75-19.79,21a21.08,21.08,0,0,0-5.32,2.13c-13.9,8-12.69,26.27-15.38,40.77-1.2,3.14-2.34,6.3-3.37,9.48-4.9,15.18-7.29,30.86-5.44,46.78,2.09,17.95,7.73,35.1,7.43,53.34-.3,18.54-4.59,36.66-7.75,54.84a256,256,0,0,0-3.52,49.38c.36,19-2.83,35.87-6.78,54.26-3.21,14.92-2.49,28.91.13,43.85,2,11.37,3.93,22.58,3.2,34.17C364.1,807.29,362,817.47,360.65,827.73ZM398,414c-.42.76-.84,1.51-1.25,2.28-3.43,6.54-6.76,13.21-9.85,20C388.37,427,390.76,418.38,398,414Z"/><path class="cls-4" d="M592.42,653c10-6.21,19.77-12.66,29.25-19.58.59-.43,4.91-3.79,4.63-3.52,1.35-1.08,2.71-2.16,4.05-3.27C612.54,524.31,557,483.39,557,483.39S546,577.34,539,685.06C556.74,674.25,574.8,664,592.42,653Z"/><rect class="cls-10" x="239.09" y="235.78" width="3.98" height="15.8" transform="translate(-32.03 450.83) rotate(-82.49)"/><rect class="cls-10" x="397.33" y="241.69" width="15.8" height="3.98" transform="matrix(0.99, -0.13, 0.13, 0.99, -28.41, 55.14)"/><path class="cls-11" d="M372,409.83a75,75,0,0,1-53,9.1c-8.39-1.75-15.73-6.12-23.92-8.27-7.52-2-15.24-.06-22.77-1.65-13.59-2.86-23.67-14.85-37.81-16.11a27.41,27.41,0,0,0-6.26.28c-2.8,7.34-7.32,11.54-14.34,16-1.65,1.05-3.26,2.11-4.83,3.2.44,0,.85,0,1.27,0,7.26,0,12.63,3.36,19,6.19,9.29,4.13,19.17,4,29.1,5.13,38,4.09,85.17,22,116-10.72A2,2,0,0,0,372,409.83Z"/><path class="cls-11" d="M413.52,389.77a197,197,0,0,1-30.63,14.49c-2.38.89-1.35,4.73,1.05,3.84a203.2,203.2,0,0,0,31.58-14.9C417.73,391.91,415.73,388.48,413.52,389.77Z"/><path class="cls-11" d="M411.75,402.85c-18.4,9.56-30.31,30.28-36,49.71-.72,2.46,3.11,3.52,3.83,1.06,5.36-18.32,16.86-38.35,34.17-47.34C416,405.1,414,401.67,411.75,402.85Z"/><path class="cls-11" d="M444.69,410.14a168,168,0,0,0-26,101.16c1.43,20.77,2.75,40.37.92,61.22s-3.75,41.92-5.63,62.88c-.23,2.55,3.75,2.53,4,0,3.48-38.88,9.06-77.73,5.34-116.73-3.6-37.73,4.54-74.4,24.87-106.53C449.5,410,446.06,408,444.69,410.14Z"/><path class="cls-12" d="M349.22,751.92c-.59,5.81-.91,9.35-.91,9.35s-1.25-4.85-3.08-12.39q-1.44-24.58-2.93-49.16c-1.47-24.8-3.95-49.77-3.75-74.63.11-12.05,2.22-23.86,2.76-35.85.58-12.41-1.27-24.68-2.74-37a215.58,215.58,0,0,1,2.72-70.58c.52-2.5,4.35-1.43,3.82,1.06-5.41,25.87-4.83,50.85-1.65,76.92,1.41,11.55,2.48,23,1.45,34.68s-2.47,22.94-2.37,34.6C342.82,669.85,346.34,711,349.22,751.92Z"/><path class="cls-5" d="M399.44,123.17c-34.83-26.41-80.45-16.31-119.25-6.35-17.66,4.53-35.95,10-48.69,23.85-13.32,14.5-15.12,35.16-14.07,54,1.5,26.89,7.38,54.11,12.68,80.45,5,24.7,10.32,50.38,24.13,71.85a2.07,2.07,0,0,0,3.46,0c3,8.82,7.48,16.74,15.33,22.46,2.08,1.51,9,.12,6.91-1.38a77.22,77.22,0,0,1-26.56-35.44c-7.2-20.13-6.23-25.53-9.86-42.09-5.8-26.55-6.25-69.8-6.29-96.45,52.4-20.16,111-17.47,164.84-1.12-.62,31.31,1.15,62.38-1.45,93.59-1.3,15.68-2.92,32.8-8.28,47.73-6.06,16.87-19.49,28.66-34,38.59-2.1,1.44-.11,4.89,2,3.44a92.21,92.21,0,0,0,26.55-27.63A1.74,1.74,0,0,0,388,348c30.71-33,22.68-80.69,29.41-121.62C423.37,190.12,433.56,149.05,399.44,123.17Z"/><path class="cls-13" d="M350.56,769.11c0-.31.05-.63.08-.94.2-2.29-2.95-2.5-3.77-.71-14.47-36.18-39-67-56.22-101.78-8.33-16.88-15.08-34.75-26-50.21-5.21-7.36-14.74-13.77-16.67-22.3-2.4-10.64,6.13-25,10.07-35.06a1.58,1.58,0,0,0-.27-1.7l31.67,5c2.51.4,3.58-3.43,1.06-3.83L253,551.65l-18.78-3c-2.13-.34-9.52-.57-11.27-1.79-3.06-2.13-2.26-5.22-2.24-8.5l.45-80.55c0-2.56-4-2.56-4,0q-.25,45.2-.5,90.38a2,2,0,0,0,1.46,1.91L255.16,556a2,2,0,0,0-.95,1c-4,10.18-9.1,20.78-11.66,31.41-1.61,6.68,1,9.86,5.68,14.34,15.73,15,24.57,34,33.58,53.48,18.27,39.46,46.49,73.88,62.11,114.54A42,42,0,0,1,350.56,769.11Z"/><path class="cls-7" d="M302.2,222.15a8.39,8.39,0,0,0-1.23-2.36c-4.29-6-14.55-5.42-21.21-4.51-9,1.22-23.24,4.41-27.51,13-.56,1.13,2.67,1.21,4,1.12,11.64-.77,23.31-2.3,35-1.43C296.09,228.33,303.69,227,302.2,222.15Z"/><path class="cls-7" d="M355.68,229c11.68-.87,23.35.66,35,1.44,1.36.09,4.59,0,4-1.12-4.27-8.59-18.51-11.78-27.51-13-6.66-.9-16.92-1.53-21.2,4.51a8.23,8.23,0,0,0-1.24,2.37C343.26,228,350.86,229.32,355.68,229Z"/><path class="cls-11" d="M265.31,144.19c-12.3,11.92-19.22,25.41-27.54,40.06-1.27,2.23,2.17,4.24,3.43,2,8.13-14.32,14.86-27.57,26.92-39.26C270,145.22,267.15,142.41,265.31,144.19Z"/><path class="cls-11" d="M401.18,184.19a122.88,122.88,0,0,0-19.07-41.33c-1.47-2.07-4.92-.08-3.44,2a119.79,119.79,0,0,1,18.68,40.38C398,187.73,401.81,186.68,401.18,184.19Z"/><path class="cls-14" d="M312.26,112.83a2,2,0,0,0-2.45,1.39l-2,5a2,2,0,0,0,1.39,2.45,2,2,0,0,0,2.45-1.39q1-2.49,2-5A2,2,0,0,0,312.26,112.83Z"/><path class="cls-14" d="M242,148.19a2,2,0,0,0-2.45,1.39q-1,2.49-2,5A2,2,0,0,0,239,157a2,2,0,0,0,2.45-1.39q1-2.49,2-5A2,2,0,0,0,242,148.19Z"/><path class="cls-14" d="M275.8,105.14a2,2,0,0,0-2.44,1.39l-2,5a2,2,0,0,0,1.39,2.45,2,2,0,0,0,2.44-1.39q1-2.49,2-5A2,2,0,0,0,275.8,105.14Z"/><path class="cls-14" d="M215.69,288.83a2,2,0,0,0-2.45,1.39q-1,2.47-2,5a2,2,0,0,0,1.39,2.45,2,2,0,0,0,2.45-1.39q1-2.49,2-5A2,2,0,0,0,215.69,288.83Z"/><path class="cls-14" d="M228.54,370.87a2,2,0,0,0-2.45,1.38q-1,2.49-2,5a2,2,0,0,0,1.39,2.45,2,2,0,0,0,2.45-1.39q1-2.49,2-5A2,2,0,0,0,228.54,370.87Z"/><path class="cls-14" d="M332.43,146.14a2,2,0,0,0-2.45,1.39q-1,2.49-2,5A2,2,0,0,0,329.4,155a2,2,0,0,0,2.45-1.39c.65-1.66,1.31-3.31,2-5A2,2,0,0,0,332.43,146.14Z"/><path class="cls-14" d="M425.12,150.62a2,2,0,0,0-2.45,1.39l-2,5a2,2,0,0,0,1.39,2.45,2,2,0,0,0,2.45-1.39l2-5A2,2,0,0,0,425.12,150.62Z"/><path class="cls-14" d="M218.69,214.78a2,2,0,0,0-2.45,1.39l-2,5a2,2,0,0,0,1.38,2.44,2,2,0,0,0,2.45-1.39l2-5A2,2,0,0,0,218.69,214.78Z"/><path class="cls-14" d="M283.75,381.88a2,2,0,0,0-2.45,1.39l-2,5a2,2,0,0,0,1.39,2.45,2,2,0,0,0,2.45-1.39q1-2.49,2-5A2,2,0,0,0,283.75,381.88Z"/><path class="cls-14" d="M409.44,441.65A2,2,0,0,0,407,443q-1,2.49-2,5a2,2,0,0,0,1.39,2.45,2,2,0,0,0,2.45-1.39q1-2.49,2-5A2,2,0,0,0,409.44,441.65Z"/><path class="cls-14" d="M406.44,551.62A2,2,0,0,0,404,553l-2,5a2,2,0,0,0,1.39,2.44,2,2,0,0,0,2.45-1.38l2-5A2,2,0,0,0,406.44,551.62Z"/><path class="cls-14" d="M390.72,600.89a2,2,0,0,0-2.45,1.39q-1,2.49-2,5a2,2,0,0,0,1.39,2.44,2,2,0,0,0,2.45-1.38l2-5A2,2,0,0,0,390.72,600.89Z"/><path class="cls-14" d="M242,335.58a2,2,0,0,0-2.45,1.39q-1,2.49-2,5A2,2,0,0,0,239,344.4a2,2,0,0,0,2.45-1.39q1-2.49,2-5A2,2,0,0,0,242,335.58Z"/><path class="cls-14" d="M293.52,155.1a2,2,0,0,0-2.44,1.39q-1,2.49-2,5a2,2,0,0,0,1.39,2.45,2,2,0,0,0,2.44-1.39q1-2.49,2-5A2,2,0,0,0,293.52,155.1Z"/><path class="cls-14" d="M354,100.66a2,2,0,0,0-2.44,1.39l-2,5a2,2,0,0,0,1.39,2.45,2,2,0,0,0,2.44-1.39q1-2.49,2-5A2,2,0,0,0,354,100.66Z"/><path class="cls-14" d="M374.18,134a2,2,0,0,0-2.45,1.39l-2,5a2,2,0,0,0,1.39,2.44,2,2,0,0,0,2.45-1.39q1-2.49,2-5A2,2,0,0,0,374.18,134Z"/><path class="cls-14" d="M412.44,288.83a2,2,0,0,0-2.45,1.39c-.65,1.65-1.31,3.31-2,5a2,2,0,0,0,1.38,2.45,2,2,0,0,0,2.45-1.39l2-5A2,2,0,0,0,412.44,288.83Z"/><path class="cls-14" d="M374.72,375.35a2,2,0,0,0-2.44,1.39l-2,5a2,2,0,0,0,1.39,2.44,2,2,0,0,0,2.44-1.39q1-2.49,2-5A2,2,0,0,0,374.72,375.35Z"/><path class="cls-14" d="M290.37,450.61a2,2,0,0,0-2.45,1.39l-2,5a2,2,0,0,0,1.39,2.44,2,2,0,0,0,2.45-1.38q1-2.49,2-5A2,2,0,0,0,290.37,450.61Z"/><path class="cls-14" d="M329.43,398.93a2,2,0,0,0-2.45,1.39l-2,5a2,2,0,0,0,1.39,2.45,2,2,0,0,0,2.45-1.39l2-5A2,2,0,0,0,329.43,398.93Z"/><path class="cls-14" d="M218.69,427.84a2,2,0,0,0-2.45,1.39l-2,5a2,2,0,0,0,1.38,2.45,2,2,0,0,0,2.45-1.39l2-5A2,2,0,0,0,218.69,427.84Z"/><path class="cls-14" d="M413.81,217.66a2,2,0,0,0-2.45,1.39q-1,2.49-2,5a2,2,0,0,0,1.39,2.44,2,2,0,0,0,2.45-1.39c.66-1.65,1.31-3.31,2-5A2,2,0,0,0,413.81,217.66Z"/><path class="cls-14" d="M441.71,315.47a2,2,0,0,0-2.45,1.39c-.65,1.66-1.31,3.32-2,5a2,2,0,0,0,1.38,2.45,2,2,0,0,0,2.45-1.39l2-5A2,2,0,0,0,441.71,315.47Z"/><path class="cls-14" d="M462.2,437.16a2,2,0,0,0-2.45,1.39q-1,2.49-2,5a2,2,0,0,0,1.39,2.45,2,2,0,0,0,2.45-1.39q1-2.49,2-5A2,2,0,0,0,462.2,437.16Z"/><path class="cls-14" d="M383.05,492.44a2,2,0,0,0-2.45,1.39l-2,5a2,2,0,0,0,1.38,2.44,2,2,0,0,0,2.45-1.39c.66-1.65,1.31-3.31,2-5A2,2,0,0,0,383.05,492.44Z"/><path class="cls-14" d="M383.05,165.5a2,2,0,0,0-2.45,1.39l-2,5a2,2,0,0,0,1.38,2.44,2,2,0,0,0,2.45-1.38l2-5A2,2,0,0,0,383.05,165.5Z"/><path class="cls-14" d="M435.7,248.48a2,2,0,0,0-2.44,1.39l-2,5a2,2,0,0,0,1.39,2.44,2,2,0,0,0,2.44-1.39q1-2.47,2-5A2,2,0,0,0,435.7,248.48Z"/><path class="cls-14" d="M413.81,349.05a2,2,0,0,0-2.45,1.39q-1,2.49-2,5a2,2,0,0,0,1.39,2.45,2,2,0,0,0,2.45-1.39l2-5A2,2,0,0,0,413.81,349.05Z"/><path class="cls-14" d="M441.71,501.4a2,2,0,0,0-2.45,1.39l-2,5a2,2,0,0,0,1.38,2.45,2,2,0,0,0,2.45-1.39l2-5A2,2,0,0,0,441.71,501.4Z"/><path class="cls-14" d="M450,607.82a2,2,0,0,0-2.45,1.39q-1,2.49-2,5a2,2,0,0,0,1.39,2.45,2,2,0,0,0,2.45-1.39q1-2.49,2-5A2,2,0,0,0,450,607.82Z"/><path class="cls-14" d="M428.12,706a2,2,0,0,0-2.45,1.39q-1,2.49-2,5a2,2,0,0,0,1.39,2.44,2,2,0,0,0,2.45-1.38l2-5A2,2,0,0,0,428.12,706Z"/><path class="cls-14" d="M380.05,837.49a2,2,0,0,0-2.45,1.39l-2,5a2,2,0,0,0,1.39,2.45,2,2,0,0,0,2.45-1.39q1-2.49,2-5A2,2,0,0,0,380.05,837.49Z"/><path class="cls-14" d="M380.05,733.18a2,2,0,0,0-2.45,1.38l-2,5A2,2,0,0,0,377,742a2,2,0,0,0,2.45-1.39q1-2.49,2-5A2,2,0,0,0,380.05,733.18Z"/><path class="cls-14" d="M393.72,662.73a2,2,0,0,0-2.44,1.38q-1,2.49-2,5a2,2,0,0,0,1.39,2.45,2,2,0,0,0,2.44-1.39q1-2.49,2-5A2,2,0,0,0,393.72,662.73Z"/><path class="cls-14" d="M412.44,783.77a2,2,0,0,0-2.45,1.39l-2,5a2,2,0,0,0,1.38,2.45,2,2,0,0,0,2.45-1.39l2-5A2,2,0,0,0,412.44,783.77Z"/><path class="cls-14" d="M462.2,546.79a2,2,0,0,0-2.45,1.39q-1,2.49-2,5a2,2,0,0,0,1.39,2.45,2,2,0,0,0,2.45-1.39q1-2.49,2-5A2,2,0,0,0,462.2,546.79Z"/><path class="cls-14" d="M456.19,657.21a2,2,0,0,0-2.44,1.39q-1,2.48-2,5a2,2,0,0,0,1.39,2.45,2,2,0,0,0,2.44-1.39l2-5A2,2,0,0,0,456.19,657.21Z"/><path class="cls-14" d="M465.2,761.34a2,2,0,0,0-2.45,1.38l-2,5a2,2,0,0,0,1.38,2.45,2,2,0,0,0,2.45-1.39l2-5A2,2,0,0,0,465.2,761.34Z"/><path class="cls-14" d="M349.82,446.13a2,2,0,0,0-2.45,1.39q-1,2.49-2,5a2,2,0,0,0,1.39,2.44,2,2,0,0,0,2.45-1.39l2-5A2,2,0,0,0,349.82,446.13Z"/><path class="cls-10" d="M289.83,281.69c-.66,0-1.32,0-2-.07-23.87-1.53-32.15-13.25-34.87-17.1-6.4-9-6.47-22.36-6.47-22.92h0a2,2,0,0,1,.82-1.56c1.92-1.41,33.12-6.92,68.05,4.08,2.56.93.62,10.56,0,13.49C311.85,273.21,302.83,281.69,289.83,281.69Zm-39.44-38.82c.19,3.42,1.11,13,5.76,19.55,2.45,3.48,9.94,14.07,31.93,15.48,6.17.39,11.29-1.25,15.23-4.9,8.15-7.54,9.33-21.47,9.5-25.75C282.72,238.09,256,241.58,250.39,242.87Z"/><path class="cls-10" d="M357.12,280.41c-13.5,0-22.36-8.93-25-25.38-1.73-10.65-.23-11,.76-11.25,33.26-10.49,64.09-6.64,66.61-4.8l.81.58v1c0,.56-.07,13.8-6.43,22.81-2.72,3.83-11,15.48-34.69,17C358.48,280.39,357.79,280.41,357.12,280.41ZM335.25,247c.05,4.13.85,17.48,8.56,24.8,3.82,3.63,8.88,5.27,15.11,4.87,21.85-1.4,29.3-11.93,31.75-15.39,4.61-6.52,5.53-16,5.72-19.39C390.81,240.7,365,237.88,335.25,247Z"/><polygon class="cls-10" points="314.59 247.81 314.51 244.08 334.31 243.68 334.4 247.41 314.59 247.81"/></g></g></g></svg>