<svg xmlns="http://www.w3.org/2000/svg" xmlns:xlink="http://www.w3.org/1999/xlink" viewBox="0 0 755.83 910.92"><defs><style>.cls-1{fill:none;}.cls-2{clip-path:url(#clip-path);}.cls-3{fill:#fff;}.cls-4{fill:#232c44;}.cls-5{fill:#fea689;}.cls-6{fill:#f2815c;}.cls-7{fill:#fff8f0;}.cls-8{fill:#6b3939;}.cls-9{fill:#485a7e;}.cls-10{fill:#dbc4b8;}.cls-11{fill:#f2e2da;}.cls-12{fill:#bf9c8f;}</style><clipPath id="clip-path" transform="translate(26.24)"><circle class="cls-1" cx="327.62" cy="327.62" r="327.62"/></clipPath></defs><g id="Layer_2" data-name="Layer 2"><g id="Layer_1-2" data-name="Layer 1"><g class="cls-2"><circle class="cls-3" cx="353.86" cy="327.62" r="327.62"/><path class="cls-4" d="M452,176.78c-.36-7.42-.46-16.37-4.87-22.46a60.15,60.15,0,0,0-1.7-18.38c-3.62-14-11.75-14-23.44-19.33-5.65-2.58-9.45-4.6-12.71-10.3-1.23-2.14-.55-2.62-1.83-4.31-2.89-3.81-10.23-5.64-14.57-6.45a28.46,28.46,0,0,0-17.83,2.12,28.14,28.14,0,0,0-6.47-4.14,30,30,0,0,0-16.13-2.4c-7.17.91-14.47,7.19-21.85,3.52-4.54-2.26-7.66-6.08-12.85-7.31a25.24,25.24,0,0,0-13.75.85A28.76,28.76,0,0,0,292.18,96C279,88.13,261.42,94,250.6,105.17c-5.2,5.34-8.61,13.23-16.12,16-4.25,1.54-7.64,1.33-11.49,4.22-4.57,3.43-7.11,8.17-8.49,13.37-10.42,1-17.85,9.81-19.47,20.34-2.56,16.61,7.41,32.1,9.2,48.27,1,8.57,1.05,16.62,3.81,24.89,3.23,9.68,5.57,17.54,6.43,27.79a34.91,34.91,0,0,0,6.35,17.9c5.37,7.88,12.38,14.39,12.33,24.64,0,2.56,4,2.71,4,.14,0-7.73-3.33-13.3-7.29-18.82,16.94,7.33,33.79,15.07,51,21.87,16.14,6.4,33.24,9.48,50.26,12.51,16.44,2.93,33.15,5.31,49.89,4.59,13.38-.58,29.62-2.32,40.85-10.22,10.21-7.18,13.69-23.55,17.18-34.7a293.11,293.11,0,0,0,10.75-48.46A289.85,289.85,0,0,0,452,176.78Z" transform="translate(26.24)"/><path class="cls-5" d="M478.55,519.65l-22.39-5.89-6.27-1.64c-3.69-1-7.37-1.94-11.06-2.91-7.79-2-18.5-3.43-27-7.14a31.3,31.3,0,0,1-4.12-2.12c-5.48-3.28-8.64-25.94-8.89-33.32,0-.33,0-.65,0-1l0-.1c-.71-21-.6-42.09,0-63.16l0-.44q.33-11.62.84-23.21a2.36,2.36,0,0,0-2.59-2.64c-23,3.88-46.38,3.71-69.53,6.57C306.78,385.25,265,370.57,264.4,358c-.15-3-4.76-2.4-4.59.55.61,11.62,2.72,33.13,5,56.25,1.08,11.05,2.19,22.47,3.17,33.37a68.92,68.92,0,0,1-1.75,21.53c-3,12.58-9.35,24-18.41,27.33-12,4.42-31,13.58-43.63,15.83-3.57.65-7.35,1.28-10.1,3.67-8.63,7.53,7.4,23.71,11.22,30.18,3.68,6.2,7.43,12.33,11.33,18.42,11,17.33,18.18,28.31,30.62,44.58a719.89,719.89,0,0,0,50.44,59.08,2.4,2.4,0,0,0,3.22.46c4.64-3.46,9.25-6.89,13.85-10.39.65-.45,1.27-.93,1.9-1.42q13.78-10.4,27.41-21T371,615.28c1.05-.79,2.07-1.61,3.08-2.45q37.62-30,74.1-61.51,15.84-13.67,31.48-27.55A2.35,2.35,0,0,0,478.55,519.65Z" transform="translate(26.24)"/><path class="cls-5" d="M424.44,172.83c-7.29-7.42-37.26-8.36-46.48-8.76-15.48-.67-31-.18-46.52.13-35.13.72-70.12,3.1-104.4,11.26a3.38,3.38,0,0,0-2.5,3.81,2.54,2.54,0,0,0-1.1,1.91c-2.27,45-.23,126.94,13.71,176.37,7.56,26.82,31.85,59,53.74,75.5,40.92,30.92,83.62,3,111.17-30.83C435.63,361,432.28,299.9,432.09,248c0-14.17-.62-28.33-1.61-42.47C429.84,196.35,431.43,179.93,424.44,172.83Z" transform="translate(26.24)"/><path class="cls-4" d="M288.38,285.52a34.89,34.89,0,0,0-.59-12,10.87,10.87,0,0,0-2.74-5.05c-4.1-3.81-8.47.45-9.3,4.55-1.06,5.33-.25,16.78,4.81,19.18S287.7,290.54,288.38,285.52Z" transform="translate(26.24)"/><path class="cls-4" d="M387.18,286.62a34.83,34.83,0,0,0-.6-12,10.87,10.87,0,0,0-2.74-5.05c-4.09-3.82-8.47.44-9.29,4.55-1.07,5.33-.26,16.78,4.81,19.17S386.5,291.64,387.18,286.62Z" transform="translate(26.24)"/><path class="cls-5" d="M447.29,274.07c-2.49-3.64-6.86-8.87-11.88-9.82a7.71,7.71,0,0,0-1.29-.16h-.73a9.25,9.25,0,0,0-2.17.38,7.83,7.83,0,0,0-.78.25,17.07,17.07,0,0,0-4.21,2.36c-5,3.68-9.43,9.83-12.08,13.2-1.5,1.89,2,3.71,3.46,1.83.15-.2.31-.41.48-.61a116.5,116.5,0,0,0-4.58,13.7c-.32,1.17-.6,2.37-.86,3.57a102.42,102.42,0,0,0-1.88,35.88c1.47,11.64,10.84,7.82,19,1.71a78.68,78.68,0,0,0,11.6-10.75C452,313,457,288.25,447.29,274.07Z" transform="translate(26.24)"/><path class="cls-5" d="M215.45,328.9a77.89,77.89,0,0,0,10.78,11.56c7.74,6.69,16.81,11.18,19.11-.33a102.08,102.08,0,0,0,.73-35.92c-.18-1.21-.37-2.43-.61-3.63a113,113,0,0,0-3.57-14l.44.64c1.34,2,4.94.42,3.58-1.57-2.4-3.55-6.37-10-11.1-14a17.39,17.39,0,0,0-4-2.66,6,6,0,0,0-.76-.3,9.22,9.22,0,0,0-2.13-.53c-.24,0-.5-.06-.74-.07a9.14,9.14,0,0,0-1.29.06c-5.08.59-9.81,5.49-12.57,8.94C202.61,290.5,205.8,315.59,215.45,328.9Z" transform="translate(26.24)"/><path class="cls-6" d="M437.17,304.27c-.49-3.16-2.75-4.77-3.25-7.51-.95-5.13,1-12.8,1.39-18,.19-2.55-3.78-2.69-4-.14-.28,3.69-.57,7.39-.85,11.08-.21,2.64-1.38,6.91-.54,9.46.45,1.38,1.06,1.18,1.78,2.56,2.42,4.66,2,10.26-3.55,12.47-2.38.94-.48,4.44,1.88,3.5C435.34,315.58,438,309.84,437.17,304.27Z" transform="translate(26.24)"/><path class="cls-6" d="M233.42,324c-9.81-4.9-3.51-13.52-3-20.68.4-5.87-2-12.88-2.95-18.68-.42-2.53-4.29-1.6-3.87.92.88,5.32,2.74,11.36,2.4,16.75-.24,3.6-1.92,6.75-2.05,10.46-.23,6.12,1.71,11.76,7.37,14.59C233.57,328.54,235.71,325.19,233.42,324Z" transform="translate(26.24)"/><path class="cls-6" d="M386.84,426.18a1,1,0,0,0-1.66-.77c-14.27,10.8-32.56,8.27-49.39,8.22-14.71-.06-29.81,0-44-4.29a58.87,58.87,0,0,1-19.25-9.81c-2.38-1.85-4.93-3.86-7.75-4.72,1.08,11.05,2.19,22.47,3.17,33.37a68.92,68.92,0,0,1-1.75,21.53,49.73,49.73,0,0,0,13.95,6.47c6.95,2.05,14.75,3.64,21.77,1.11,3.67-1.3,7-3.19,10.81-4,4.53-1,9.19-1,13.79-1.21,14.81-.65,30.28-3.1,42.62-11.91C380.06,452.36,387.62,439.82,386.84,426.18Z" transform="translate(26.24)"/><path class="cls-3" d="M358.6,367.3c-3.17-.33-6.64.13-9.81.22-6.7.2-13.4.4-20.11.56-5.51.13-11,.23-16.54.26-4.88,0-16-.87-16.34-.77-1.35.43,2.68,5.09,3.35,5.74a52,52,0,0,0,8.81,7.1c12.07,7.54,27,5.76,39.26-.13a30.19,30.19,0,0,0,8.63-6C356.48,373.64,361.24,367.56,358.6,367.3Z" transform="translate(26.24)"/><path class="cls-4" d="M433.68,246a2,2,0,0,0-1.91-2.06c-4.36.39-5.7,2.3-6.09,6.57-.52,5.65.66,11.42-.08,17.2-.81,6.31-1,17.84-1.47,24.18-2,29-4.11,51.22-10.15,75.34-3.85,15.41-12.85,23.34-22.52,35.87-2.52,3.27-4,7-7,10s-6.8,5.1-10.34,7.41c-8,5.2-17.32,7.94-26.69,9.14-10.82,1.38-21.79.8-32.69.21-5.18-.28-10.44-.57-15.37-2.22-11.78-3.92-27-16-33.5-26.62-19.21-31.55-26.17-42.21-28.85-79.05-1-13.31-1.2-43.76-1.2-43.76s-2-18.92-2.62-19.08c-1.35-.34-10.08,1.4-10.34,2.77a8.32,8.32,0,0,0,.67,4.09c7.45,22,7.12,53.57,10,76.65,4.59,37.29,18.68,76.49,47.72,101.77,20.39,17.75,50.94,20.73,75,11.92,13.62-5,27.81-10.94,37.83-22.08,5.38-6,8.54-17.53,12.83-24.31,4.78-7.59,19.14-49.89,20.5-63.76C430.58,313.09,432.5,279.14,433.68,246Z" transform="translate(26.24)"/><path class="cls-4" d="M245.14,255c-.55,1.63-1,3.58,1.66,4.26,6.11,1.56,14.41-2,20.36-2.81,8.86-1.16,17.84-.89,26.78-.26,3,.2,10.87.47,12.55-2.31C317.16,236.25,251.61,236,245.14,255Z" transform="translate(26.24)"/><path class="cls-4" d="M353.15,254.83c1.64,2.8,9.53,2.64,12.52,2.47,8.95-.51,17.93-.67,26.77.61,5.94.86,14.2,4.56,20.32,3.07,2.64-.64,2.25-2.59,1.72-4.23C408.26,237.65,342.71,237,353.15,254.83Z" transform="translate(26.24)"/><path class="cls-6" d="M332.6,349.4c-7.43-1.35-17.25-6.56-18.64-14.32-1.24-6.9,2.1-14.1,4.06-20.79,3.63-12.39,7.12-24.78,12.47-36.57,1.06-2.33-2.75-3.49-3.79-1.19a206.41,206.41,0,0,0-9.61,26.79c-2.69,9-6.57,18.61-7.93,27.94-1.72,11.8,12,20.07,22.24,21.93C333.89,353.65,335.11,349.86,332.6,349.4Z" transform="translate(26.24)"/><path class="cls-7" d="M540.15,540.43c-.06-8.18-7.51-10.9-13.79-14.35-6-3.28-13.27-4.88-19.77-6.8-11.26-3.34-22.57-6.37-33.93-9.37-14.31-3.78-38.92-8.69-52-17.81h0c-.77-.56-1.51-1.11-2.2-1.69-3.62-3-6-6.38-6.49-10.3-.47-3.72-1.29-7.37-2.07-11-.39-1.85-.54-4.38-1.63-6-2.27-3.33-6.69-1.73-9.93-1.12-4.23.79-8.44,1.63-12.63,2.49-.7.14-1.38.27-2.06.44-2.21.44-4.39.9-6.58,1.38-2.45.53-4.88,1.07-7.32,1.62l-1.91.43c-3.67.84-7.34,1.7-11,2.61s-7.57,1.51-11,3.18a14.32,14.32,0,0,0-1.93,1.13,11.6,11.6,0,0,0-1.37,1.08c-3.62,3.31-5.14,8.83-7,13.2-.89,2-1.8,4.13-2.69,6.21-.27-1.45-.51-2.89-.78-4.33-1.18-6.39-3.44-12-8.87-15.42a16.28,16.28,0,0,0-1.74-1,1.63,1.63,0,0,0-.23-.11,123.75,123.75,0,0,0-19.45-7l-1.93-.55-3.64-1c-5.11-1.42-9.95-3.46-14.9-5.29-.86-.31-2.6-1-4.7-1.83-.59-.22-1.22-.44-1.87-.66-4.46-1.58-9.6-3-10.95-1.61a2.67,2.67,0,0,0-.43.84c-3,8.33-5.95,16.7-9.24,24.94-3.5,8.82-9.84,13-18.62,15.94-14.36,4.79-105,32.41-129.85,52.42a1,1,0,0,0-.2,1.21c57.13,94.18,92,200.53,154.79,291.45a462,462,0,0,0,55.57,66.87,1,1,0,0,0,1.41,0c11.43-10.63,17.42-25,24.34-38.68a108.91,108.91,0,0,1,13.24-21,.42.42,0,0,1,.08-.12q.87-1,1.77-2c5.29-6,11.2-11.43,16.87-17.06,12.51-12.38,21.64-26.68,31.13-41.38,10.16-15.75,22.48-28.83,35.84-41.86,12.17-11.83,23.58-24,32.19-38.75,8.45-14.48,14.55-30.16,20.37-45.8,6.24-16.81,12.38-33.58,20.32-49.69C520.85,599,529.24,584,534.7,567.77,537.58,559.18,540.21,549.59,540.15,540.43Z" transform="translate(26.24)"/><path class="cls-4" d="M438.51,213.4c-.27-13.83-1-30.14-8.43-42.28-16-26.17-60.5-23.22-86.36-20.73-17.93,1.72-35.73,4.81-53.51,7.6-18.19,2.87-37.72,4.12-55.49,9-13.8,3.76-18.14,18.23-19.26,31.24-1.6,18.71,6.3,36.67,4.47,55.34a2,2,0,0,0-1.77,3.32c2.67,3.12,2.48,12.71,9.07,11.23,5.58-1.25,8.56,10.08,8.56,10.08s-3.87-60.45-.26-77.33c10.45-16.38,27.15-28.15,47.63-24.54,8.37,1.47,15.67,3.5,24.31,2.79,7.73-.64,14.85-3,22.23-5.13,10.49-3.09,16.6,1.31,26.27,2.75,8.33,1.23,15.85-3.71,24.17-1.34,7.34,2.09,12.63,5.65,20.57,5.11,3-.21,5.88-1.39,8.84-1.69,6.43-.65,12.1,6.74,11.3,12.71.15,1.74.14,3.51.22,5.26.18,4.32.38,8.64.65,13,.56,8.81,2.41,82.15,2.41,82.15s4.89-29.81,18.4-35.3c3.68-1.49-6.5-10.32-6-13.77A173.12,173.12,0,0,0,438.51,213.4Z" transform="translate(26.24)"/><path class="cls-4" d="M221,254.11s0,0,0,0S221,254.09,221,254.11Z" transform="translate(26.24)"/><path class="cls-8" d="M284,315.74h-.09C245.51,315.39,241.7,302,239.42,294l-.34-1.2c-2.23-7.43-4.12-23.26-4-27.09.22-5.2,37.71-6,42.88-5.81,19.73.79,40.3,5.57,43.29,8.93l.67.75.12,1.44c0,.75-.3,22.38-13.54,35.4C302.17,312.67,293.9,315.81,284,315.74Zm-44.06-48.19c.26,5.05,1.82,17.49,3.72,23.86l.37,1.26c2,7.16,5.11,18,39.92,18.3H284c30.17.22,33-33.14,33.29-39.27-3.58-2-20.45-6.3-39.49-7.06A175.85,175.85,0,0,0,239.92,267.55Zm77.4,3.25v0Z" transform="translate(26.24)"/><path class="cls-8" d="M382.67,315.2c-3.16,0-6-.17-8.35-.29-10-.52-18-4.1-23.89-10.66-11.61-12.93-10.6-33.06-10.55-33.91l.05-.88.8-1c3.37-3.51,27.17-6.46,44.62-6.57,13.17,0,34.74,2.54,36.5,4.45l.72.77-.22,2.81c-.82,10.64-1.83,23.89-7.54,33.61C408.79,313.74,394,315.28,382.67,315.2Zm-38.06-43.68c-.07,4.3.36,19.51,9.36,29.55,5,5.58,11.94,8.63,20.6,9.08,9.69.49,29.89,1.55,36.13-9.06,5.11-8.72,6.11-21.27,6.89-31.39a172.46,172.46,0,0,0-32.21-3.07C366.52,266.75,348.48,269.75,344.61,271.52Zm0-1.13c0,.05,0,.16,0,.31A1.55,1.55,0,0,0,344.64,270.39Z" transform="translate(26.24)"/><rect class="cls-8" x="327.84" y="260.95" width="4.77" height="21.07" transform="translate(84.54 601.34) rotate(-89.92)"/><path class="cls-9" d="M444.36,160.81c-.25-2.53-4.12-1.6-3.87.92.93,9.31-3.73,17.24-10.23,23.48-1.85,1.77.86,4.69,2.71,2.91C440.63,180.77,445.44,171.62,444.36,160.81Z" transform="translate(26.24)"/><path class="cls-9" d="M242,168.69c-7.91-8.19-7.49-29.56.22-38.16,1.7-1.89-1-4.82-2.71-2.91-5.32,5.94-6.32,15.14-6.81,22.83-.49,7.84.78,15.15,6.39,21C240.84,173.24,243.76,170.54,242,168.69Z" transform="translate(26.24)"/><path class="cls-9" d="M261.59,165.2a32.34,32.34,0,0,1-4.08-28.63c.79-2.44-3-3.63-3.79-1.2a36.21,36.21,0,0,0,4.37,31.71C259.5,169.18,263,167.33,261.59,165.2Z" transform="translate(26.24)"/><path class="cls-10" d="M31.19,640.59c.17.64.35,1.3.52,1.95.58,2.07,1.13,4.13,1.67,6.22,4.62,17.92,8.5,36,12,54.19.32,1.6.62,3.22.92,4.85.45,2.36.9,4.74,1.33,7.13q2.37,12.95,4.6,26c.13.66.25,1.35.34,2,.67,3.87,1.31,7.74,2,11.61,8.43.7,16.86,1.38,25.3,2,77.07,5.44,154.41,4.59,231.61,3.2l8.74-.14c-.34-1.38-.65-2.74-.86-4-.84-5.33-3.66-15.06-7.05-25.85-.19-.62-.41-1.27-.6-1.91-5.57-17.56-12.52-37.37-15.31-45.51-2.25-6.53-4.88-14.7-7.8-23.6-.66-2-1.32-4.09-2-6.18C283,641.55,279,629.91,275,619c-.25-.64-.49-1.27-.7-1.91-5.13-13.48-10.43-25.71-15.57-33.84-7.14-11.26-11.48-30.72-14.09-48.37-.1-.61-.17-1.23-.27-1.84A356.62,356.62,0,0,1,241,496.44c-23.37,5.78-42,10-61.27,16.56-.69.22-1.37.45-2.06.71-4.89,1.71-9.86,3.58-15,5.66-1.39.59-2.81,1.17-4.24,1.82-4.35,1.85-8.82,3.9-13.46,6.14-18.41,8.94-53.28,21.23-70.57,32.2q-8.92,5.65-17.62,11.68c-.69.47-1.39,1-2.08,1.46-1.92,1.32-3.84,2.68-5.74,4.05-7.33,5.26-15.68,10.43-21.91,17a.44.44,0,0,1-.08.1s-.06.06-.12.12a3.7,3.7,0,0,0-.33.34c-5.61,6.39-4.86,13.79-2.54,21.64C26.43,624.14,28.9,632.33,31.19,640.59Z" transform="translate(26.24)"/><path class="cls-10" d="M541.92,756.64q19.61-.42,39.21-.9a106.66,106.66,0,0,1,.73-13.3c.54-4.59,1.09-9.21,1.65-13.81.07-.69.15-1.36.24-2.06,3-25.1,5.86-50.21,8.24-75.37q2.13-22.35,3.65-44.72c.26-3.85.56-7.74.84-11.63,0-.66.09-1.31.15-2a295.91,295.91,0,0,0,1-29.73c-.17-5.38-1-10.94-4-15.49-3.42-5.08-9-7.71-14.42-10.13-.68-.31-1.37-.61-2.09-.91l-.18-.07c-3-1.22-6.28-2.36-9.69-3.39-.66-.23-1.33-.43-2-.63-12.82-3.79-27.26-6.66-38.32-10.75-8-2.95-15.74-5.34-23.43-7.37-2.17-.58-4.34-1.11-6.49-1.63-13.31-3.23-26.5-5.62-40.25-8.4l-1.87-.37c-5.59-1.14-11.28-2.36-17.1-3.72,0,.43-.4,6.77-1.32,16.64,0,.66-.11,1.33-.17,2-2.22,23.4-7.2,64.23-17,95.2-.23.66-.43,1.31-.65,2a146,146,0,0,1-6.47,16.56c-6.15,13.05-20,50.76-31.86,84.63-.27.69-.49,1.38-.73,2.06-5.19,14.84-9.95,28.82-13.47,39.52C424.71,758.19,483.32,757.88,541.92,756.64Z" transform="translate(26.24)"/><path class="cls-10" d="M79.83,756.46c21.32,1.5,42.66,2.51,64,3.18q-5-7.9-10.14-15.9c-.49-.78-1-1.53-1.49-2.31C108.45,705,82.13,668,61.79,640.14h0c-.48-.65-1-1.31-1.41-1.94h0c-1.51-2.08-3-4.13-4.47-6.09-.7-1-1.4-1.92-2.11-2.84v0c-16-21.66-26.69-35.54-26.69-35.54a.44.44,0,0,1-.08.1s-.06.06-.12.12a3.7,3.7,0,0,0-.33.34c-3.58,3.77-24,26.27-32.88,56-.25.83-.49,1.63-.7,2.46a96.73,96.73,0,0,0-2.5,11.91c-2,13.54-6.91,38-13.06,66L-23,732.5c-1,4.72-2.11,9.55-3.21,14.42C9.09,750.34,44.44,754,79.83,756.46Z" transform="translate(26.24)"/><path class="cls-10" d="M541.92,756.64c62.55-1.33,125.1-3.33,187.67-3.31-2.25-8.49-4.67-17.21-7.29-26-.18-.65-.37-1.29-.57-1.94-8.34-28-18.52-56.76-30.46-81.49-.83-1.72-1.66-3.42-2.52-5.09v0c-8-15.85-16.75-29.81-26.25-40.53q-5.91-6.66-11.67-12.42c-.57-.6-1.15-1.15-1.73-1.73h0c-29.43-29.09-55.55-41.87-72-47.46l-.18-.07c-3.75-1.27-7-2.16-9.65-2.8l-2-.45a49.1,49.1,0,0,0-6.21-1l-9.48,69.25-.27,2L533.25,721,533,723l-1,7.59,8.36,26.12Z" transform="translate(26.24)"/><path class="cls-11" d="M311.93,491.93a244.23,244.23,0,0,1-27.26,27.23c-3.82,3.22-5.82,6.49-11.18,4.89-4.94-1.48-5-3.93-6.9-8.3Q261.8,504.83,257,493.9c-1-2.35-4.53-.46-3.51,1.88,4.27,9.77,7.67,21,13.19,30.08,2.18,3.6,4.81,5.15,9.15,4.14,6.18-1.42,12.32-8.52,16.78-12.54a255.05,255.05,0,0,0,22-22.61C316.3,492.93,313.61,490,311.93,491.93Z" transform="translate(26.24)"/><path class="cls-11" d="M407.06,502c-11.29,6.93-22.42,14.67-34.23,20.68-5.3,2.69-10.45,3.94-15-1.44-1.43-1.69-2.48-8.53-3.09-10.68q-3.06-10.68-6-21.4c-.67-2.46-4.55-1.56-3.87.92,2.79,10.11,5.5,20.27,8.58,30.3,1.54,5,2.91,8.92,8.53,9.66,6.89.9,14.56-4.73,20.06-8,9-5.41,18-11,26.93-16.52C411.12,504.21,409.25,500.69,407.06,502Z" transform="translate(26.24)"/><path class="cls-11" d="M339.07,712.35c-1.51-12.2-4-23.69-2.62-36a204.47,204.47,0,0,0,1.22-34.55c-.62-11.31-1.48-22.61-.22-33.91,1.23-11.09,4.08-21.93,3.48-33.17-.5-9.42-3-18.59-4.3-27.9a182.84,182.84,0,0,1-1-41.23c.22-2.56-3.76-2.69-4-.15a187.33,187.33,0,0,0,.18,34.48c1.07,10.6,3.76,20.94,4.83,31.53,1.19,11.8-1.53,22.92-3,34.54-1.46,11.9-.63,23.75,0,35.67,1.15,21.14-3,41.36.2,62.37a275.85,275.85,0,0,1,1.27,74.12c-.29,2.54,3.68,2.67,4,.14A276.2,276.2,0,0,0,339.07,712.35Z" transform="translate(26.24)"/><path class="cls-11" d="M346.75,530.47c-.17-2.53-4.15-2.7-4-.15.21,3.12.41,6.24.62,9.35.17,2.53,4.14,2.7,4,.14C347.16,536.7,347,533.58,346.75,530.47Z" transform="translate(26.24)"/><path class="cls-11" d="M344.25,611.32l-.33,9.28c-.09,2.55,3.88,2.7,4,.14l.34-9.27C348.32,608.91,344.35,608.76,344.25,611.32Z" transform="translate(26.24)"/><path class="cls-11" d="M344.9,685l-.31,8.61c-.09,2.56,3.88,2.71,4,.15l.32-8.61C349,682.56,345,682.41,344.9,685Z" transform="translate(26.24)"/><path class="cls-11" d="M347.79,755.4,346.56,766c-.29,2.54,3.69,2.68,4,.15q.61-5.28,1.22-10.56C352.06,753,348.08,752.87,347.79,755.4Z" transform="translate(26.24)"/><path class="cls-12" d="M36.55,741.31c-2.4,9.41-4.78,18.84-6.89,28.33l2.1,0c2.08-9.39,4.4-18.72,6.79-28.05q7,.8,14,1.34c26.93,2.18,54,2,81.14.86,12.15-.52,24.3-1.25,36.43-2,.66,3.79,1.21,7.61,1.61,11.44.47,4.4.74,8.79.85,13.19l1.91,0a197.19,197.19,0,0,0-2.72-24.71c15.26-1,30.49-2.15,45.65-3.16,22.48-1.51,45-3.26,67.4-5.59-.48,10.6-1.08,21.19-1.74,31.78l2,0c.67-10.65,1.28-21.31,1.76-32,7.27-.77,14.54-1.58,21.82-2.49l3.59-.47c-.19-.62-.41-1.27-.6-1.91Q299.31,729.3,287,730.6c.37-8.62.7-17.22.93-25.83q.66-23.09.68-46.16c-.66-2-1.32-4.09-2-6.18q.07,39.2-1.61,78.38c-17.92,1.86-35.88,3.37-53.86,4.67q-29.81,2.14-59.65,3.89c-2.3-13-5.43-25.86-8.26-38.94a204.41,204.41,0,0,1-3.91-58.75,257.46,257.46,0,0,0,37.08-3.94c24.92-4.67,49.13-12.51,73.91-17.8,1.57-.34,3.15-.66,4.71-1-.25-.64-.49-1.27-.7-1.91-20.89,4.18-41.33,10.4-62.08,15.26a295.08,295.08,0,0,1-52.74,7.22c.52-6,1.23-12,2.21-18.11,4.67-29.42,12.6-58.22,16.12-87.84q.69-5.83,1.24-11.66c6.12.78,12.2,2,18.22,3.33,15.85,3.56,31.36,7.8,47.37,9.59-.1-.61-.17-1.23-.27-1.84l-1.71-.18c-11.21-1.3-22.18-4-33.12-6.69a252.27,252.27,0,0,0-30.38-5.84c.23-2.43.42-4.88.61-7.32-.69.22-1.37.45-2.06.71-.15,2.12-.33,4.26-.53,6.38a131.24,131.24,0,0,0-14.44-.72c-1.39.59-2.81,1.17-4.24,1.82,1.83-.14,3.67-.21,5.52-.22a106.66,106.66,0,0,1,13,.73c-.06.73-.11,1.47-.17,2.2-2.61,26.83-8.73,52.94-13.9,79.33-2.37,12-4.44,24.22-5.6,36.43-7.89.34-15.82.45-23.83.25-23.92-.56-48.7-2.42-73.13-1.71h0c-1.63.06-3.24.1-4.88.18.14-2.08.29-4.19.41-6.27,0-.48.07-.93.09-1.41,1-19.82,1.16-39.66.84-59.49-.69.47-1.39,1-2.08,1.46.23,18.89,0,37.75-1,56.58v0c-.15,3.07-.32,6.13-.51,9.21-7.42.39-14.78,1.06-22.06,2.11a162.83,162.83,0,0,0-37.53,9.7c-.25.83-.49,1.63-.7,2.46a159.87,159.87,0,0,1,38.75-10.21c7.06-1,14.21-1.68,21.39-2.06A535.24,535.24,0,0,1,45.38,703c-1.52,8.1-3.25,16.2-5.25,24.26-1,4.06-2.05,8.13-3.07,12.17-19.26-2.27-39.42-6-59.66-8.77L-23,732.5c17.81,2.4,35.44,5.61,52.25,7.89C31.66,740.71,34.11,741,36.55,741.31Zm2.86-3.18Q43.28,723,46.3,707.8a534.9,534.9,0,0,0,9-67.43c2.15-.1,4.29-.19,6.44-.23h0c19.46-.51,39.08.58,58.13,1.31,12.42.49,24.83.72,37.2.32a182.86,182.86,0,0,0,.32,37.42c2.46,20.4,8.67,40.09,12.32,60.28q-17.17,1-34.33,1.82l-3.21.14c-26.65,1.19-53.41,1.57-80-.55q-5.68-.43-11.37-1.07l-1.82-.2Z" transform="translate(26.24)"/><path class="cls-12" d="M453.88,714.57c-.05,16.17-.5,32.34-1.54,48.47h1.54c1-16.11,1.56-32.24,1.69-48.4q19.35.75,38.77,3.21c12.89,1.62,25.76,3.4,38.64,5.12,9,1.18,17.94,2.32,26.94,3.35q-1.21,18.13-2.26,36.26h2q1-18,2.25-36c7.19.8,14.39,1.51,21.61,2.09,1.19.11,2.4.21,3.59.29a799.15,799.15,0,0,0,103.81.8q-.76,12.6-1.83,25.27c-.21,2.45-.38,4.9-.56,7.34h1.93c.84-10.92,1.76-21.82,2.47-32.74q14.69-.87,29.38-2.29c-.18-.65-.37-1.29-.57-1.94q-14.33,1.36-28.68,2.23c.88-13.8,1.42-27.63,1.05-41.51-.38-14.1-1.41-28.17-2.83-42.21-.83-1.72-1.66-3.42-2.52-5.09,1,9,1.8,18,2.4,27.05a503.1,503.1,0,0,1-.13,61.89,796.89,796.89,0,0,1-86.61.28c-6.91-.35-13.8-.84-20.66-1.43-7.27-.58-14.5-1.3-21.72-2.08q1.14-16.66,2.27-33.37c2-30.29,3.77-60.69,4.29-91.08,2-.36,4-.73,6-1.11q10.9-2.05,21.88-4.08c18.07-3.33,36.17-6.49,54.35-9-.57-.6-1.15-1.15-1.73-1.73h0c-17.52,2.51-35,5.57-52.45,8.8-9.33,1.71-18.67,3.48-28,5.22.32-21.46,0-42.93-1.35-64.35,0-.2,0-.4,0-.59-.66-.23-1.33-.43-2-.63,0,.25,0,.51,0,.77,1.36,21.72,1.69,43.44,1.36,65.16-5.67,1-11.36,2.1-17,3.11-31.74,5.69-63.58,10.61-95.79,12.16-.73-32.06-.86-64.3,1.71-96.24q24-1.74,48-3.08c-2.17-.58-4.34-1.11-6.49-1.63q-8.61.47-17.19,1c-8,.52-16.08,1.11-24.12,1.67.32-3.71.65-7.42,1.06-11.1l-1.87-.37c-.4,3.87-.78,7.73-1.1,11.6q-8.65.64-17.32,1.32c0,.66-.11,1.33-.17,2q8.66-.71,17.32-1.32c-2.42,30-2.53,60.36-1.91,90.45,0,1.91.08,3.84.13,5.77-2.65.1-5.28.21-7.93.27-8.2.22-16.4.18-24.61,0-.23.66-.43,1.31-.65,2,2.66.08,5.31.11,8,.13,8.44.09,16.86-.1,25.25-.52.77,32.19,2.11,64.47,2,96.71a314.22,314.22,0,0,0-37.19.54c-12.19,1-24.31,2.52-36.41,4.33-.27.69-.49,1.38-.73,2.06,6.74-1,13.48-1.92,20.25-2.72A351.25,351.25,0,0,1,453.88,714.57Zm0-98.94c32.06-1.67,63.83-6.45,95.47-12.08,5.77-1,11.52-2.07,17.29-3.14-.72,41.3-3.79,82.58-6.56,123.87q-13.41-1.47-26.8-3.26c-7.75-1-15.49-2-23.23-3.11-18.12-2.48-36.25-4.57-54.43-5.41.16-25.69-.51-51.4-1.24-77.2C454.17,628.77,454,622.2,453.85,615.63Z" transform="translate(26.24)"/><path class="cls-12" d="M493.62,611.65c-8.67-35.85-24.23-69.87-39.19-103.41-1-2.34-4.54-.46-3.5,1.88,14.82,33.26,30.22,66.91,38.82,102.44,5,20.49.55,36.8-8.6,55.18A308.84,308.84,0,0,1,458,706.46c-34.77,49.93-80.53,90.83-118.41,138.25-12.46-24.12-33.08-41.88-51.65-61.26-21.82-22.78-38.59-49.36-53.82-76.86C226,692,218.19,677.12,210.41,662.3c-7.52-14.31-22.81-33.53-18.31-50,4.3-15.77,12.33-31.33,18.33-46.54l20.12-51c.94-2.38-2.86-3.56-3.8-1.19l-20.11,51c-6.34,16-15.11,32.68-19.28,49.43-3.28,13.21,6.62,25.56,12.47,36.71,8.43,16.06,16.8,32.15,25.45,48.1,15.3,28.22,31.59,56.32,53.15,80.31,20.09,22.35,44.42,41.24,58.14,68.54-3.13,13.16-12.55,23.26-17.28,35.79a63.88,63.88,0,0,0-2.26,7.33,36.61,36.61,0,0,1,4.4-1.06c.48-1.7,1-3.4,1.65-5.07,4.61-12.16,13.53-21.88,17-34.47a2.12,2.12,0,0,0,.56-.49c40.93-52,91.92-95.92,127.89-151.81,8.3-12.91,16-26.48,21.89-40.69C496.73,641.84,497.51,627.69,493.62,611.65Z" transform="translate(26.24)"/></g></g></g></svg>